<svg width="617" height="463" viewBox="0 0 617 463" fill="none" xmlns="http://www.w3.org/2000/svg">
<path d="M104.865 73.685H81.726C81.3034 70.6914 80.4405 68.0323 79.1374 65.7078C77.8343 63.3482 76.1614 61.3407 74.1187 59.6854C72.076 58.0301 69.7163 56.7622 67.0396 55.8817C64.3982 55.0012 61.5278 54.561 58.4286 54.561C52.8287 54.561 47.9509 55.9521 43.795 58.7345C39.6391 61.4815 36.4166 65.4965 34.1274 70.7794C31.8381 76.0271 30.6935 82.4017 30.6935 89.9034C30.6935 97.6164 31.8381 104.097 34.1274 109.344C36.4518 114.592 39.692 118.554 43.8478 121.231C48.0037 123.907 52.8111 125.246 58.2701 125.246C61.3341 125.246 64.1693 124.841 66.7755 124.031C69.4169 123.221 71.759 122.041 73.8017 120.491C75.8444 118.906 77.5349 116.987 78.8733 114.733C80.2468 112.479 81.1977 109.908 81.726 107.02L104.865 107.126C104.266 112.091 102.769 116.881 100.375 121.495C98.0149 126.073 94.8275 130.176 90.8126 133.804C86.8328 137.396 82.0782 140.249 76.5488 142.362C71.0546 144.44 64.8384 145.479 57.9003 145.479C48.2502 145.479 39.6215 143.296 32.0142 138.928C24.4421 134.561 18.4548 128.239 14.0524 119.963C9.68526 111.686 7.50168 101.667 7.50168 89.9034C7.50168 78.105 9.72048 68.0675 14.1581 59.791C18.5957 51.5145 24.6182 45.2103 32.2255 40.8784C39.8329 36.5112 48.3911 34.3276 57.9003 34.3276C64.1693 34.3276 69.9804 35.2081 75.3337 36.969C80.7223 38.73 85.4945 41.301 89.6503 44.682C93.8062 48.0278 97.1872 52.1309 99.7934 56.9911C102.435 61.8513 104.125 67.416 104.865 73.685Z" fill="black"/>
<path d="M158.045 181.95C149.839 181.95 142.742 180.207 136.755 176.72C130.803 173.198 126.207 168.302 122.967 162.033C119.726 155.729 118.106 148.421 118.106 140.11C118.106 131.727 119.726 124.402 122.967 118.133C126.207 111.829 130.803 106.933 136.755 103.446C142.742 99.9245 149.839 98.1635 158.045 98.1635C166.251 98.1635 173.33 99.9245 179.282 103.446C185.269 106.933 189.883 111.829 193.123 118.133C196.363 124.402 197.983 131.727 197.983 140.11C197.983 148.421 196.363 155.729 193.123 162.033C189.883 168.302 185.269 173.198 179.282 176.72C173.33 180.207 166.251 181.95 158.045 181.95ZM158.151 164.516C161.884 164.516 165.001 163.46 167.501 161.347C170.002 159.198 171.886 156.275 173.154 152.577C174.457 148.879 175.109 144.67 175.109 139.951C175.109 135.232 174.457 131.023 173.154 127.325C171.886 123.627 170.002 120.704 167.501 118.555C165.001 116.407 161.884 115.333 158.151 115.333C154.382 115.333 151.212 116.407 148.641 118.555C146.106 120.704 144.186 123.627 142.883 127.325C141.615 131.023 140.981 135.232 140.981 139.951C140.981 144.67 141.615 148.879 142.883 152.577C144.186 156.275 146.106 159.198 148.641 161.347C151.212 163.46 154.382 164.516 158.151 164.516Z" fill="black"/>
<path d="M261.028 243.011V325H221.696V183.182H259.182V208.203H260.844C263.983 199.955 269.246 193.43 276.632 188.629C284.018 183.767 292.974 181.335 303.5 181.335C313.348 181.335 321.935 183.49 329.26 187.798C336.585 192.107 342.278 198.262 346.341 206.264C350.403 214.205 352.435 223.684 352.435 234.702V325H313.102V241.719C313.164 233.04 310.948 226.269 306.455 221.406C301.961 216.482 295.775 214.02 287.896 214.02C282.603 214.02 277.925 215.159 273.862 217.436C269.861 219.714 266.722 223.037 264.445 227.408C262.229 231.716 261.09 236.918 261.028 243.011Z" fill="black"/>
<path d="M418.338 185.788V199.767H377.929V185.788H418.338ZM387.103 169.712H405.713V232.27C405.713 233.988 405.975 235.328 406.499 236.289C407.023 237.221 407.752 237.876 408.683 238.254C409.645 238.633 410.751 238.822 412.004 238.822C412.877 238.822 413.751 238.75 414.625 238.604C415.498 238.429 416.168 238.298 416.634 238.211L419.561 252.059C418.629 252.35 417.319 252.685 415.629 253.064C413.94 253.472 411.887 253.719 409.47 253.807C404.985 253.981 401.053 253.384 397.675 252.015C394.325 250.647 391.719 248.521 389.855 245.637C387.991 242.754 387.074 239.114 387.103 234.716V169.712Z" fill="black"/>
<path d="M386.02 400.002H365.75L396.636 310.533H421.013L451.855 400.002H431.585L409.174 330.978H408.475L386.02 400.002ZM384.753 364.835H432.633V379.6H384.753V364.835Z" fill="black"/>
<path d="M498.918 433.545C492.045 433.545 486.133 432.089 481.182 429.176C476.26 426.235 472.474 422.158 469.824 416.944C467.202 411.731 465.892 405.732 465.892 398.946C465.892 392.073 467.217 386.044 469.867 380.86C472.547 375.647 476.347 371.584 481.269 368.672C486.191 365.73 492.045 364.259 498.831 364.259C504.685 364.259 509.811 365.322 514.208 367.448C518.606 369.575 522.086 372.56 524.649 376.404C527.212 380.248 528.625 384.763 528.887 389.947H511.325C510.83 386.597 509.519 383.903 507.393 381.865C505.296 379.797 502.544 378.763 499.137 378.763C496.253 378.763 493.734 379.549 491.579 381.122C489.453 382.666 487.793 384.923 486.599 387.893C485.405 390.864 484.808 394.461 484.808 398.684C484.808 402.965 485.39 406.605 486.555 409.605C487.749 412.605 489.424 414.891 491.579 416.464C493.734 418.037 496.253 418.823 499.137 418.823C501.263 418.823 503.17 418.386 504.86 417.512C506.578 416.639 507.99 415.372 509.097 413.712C510.233 412.022 510.976 409.998 511.325 407.639H528.887C528.595 412.765 527.197 417.279 524.693 421.182C522.217 425.055 518.795 428.084 514.427 430.269C510.058 432.453 504.889 433.545 498.918 433.545Z" fill="black"/>
<path d="M537.446 283.979V268.383H610.925V283.979H583.534V357.852H564.837V283.979H537.446Z" fill="black"/>
</svg>
