<svg xmlns="http://www.w3.org/2000/svg" viewBox="0 0 512 512" aria-label="JavaScript logo" role="img">
  <rect x="48" y="48" width="416" height="416" rx="28" fill="#F7DF1E"/>
  <path d="M216.3 367.3c8.5 13.9 19.6 24.2 39.3 24.2 16.5 0 27-8.2 27-19.7 0-13.7-10.8-18.5-29-26.4l-10-4.3c-28.8-12.3-47.9-27.7-47.9-60.2 0-30 22.8-52.8 58.5-52.8 25.4 0 43.6 8.8 56.7 31.9l-31.1 20c-6.8-12.3-14.2-17.1-25.6-17.1-11.6 0-19 7.4-19 17.1 0 12 7.4 16.8 24.5 24.2l10 4.3c33.9 14.5 53.1 29.3 53.1 62.6 0 35.8-28.2 55.5-66.1 55.5-37.1 0-61-17.7-72.7-40.9zM63.6 370.8l31.1-18.8c6 10.5 11.4 19.4 24.5 19.4 12.5 0 20.5-4.9 20.5-23.9V228.9h38.2V348c0 36.1-21.1 52.5-51.9 52.5-27.8 0-43.9-14.4-52.4-29.7z" fill="#000"/>
</svg>