<svg width="60" height="26" viewBox="0 0 60 26" fill="none" xmlns="http://www.w3.org/2000/svg">
<path d="M1.95383 24.4593C1.82193 24.4593 1.54164 24.3027 1.11296 23.9894C1.01404 23.907 0.9316 23.8081 0.86565 23.6927C0.783212 23.5773 0.717262 23.5195 0.667799 23.5195C0.568874 23.1733 0.445217 23.0002 0.296828 23.0002C0.329804 22.9672 0.346291 22.9342 0.346291 22.9013C0.346291 22.8683 0.272097 22.6704 0.123709 22.3077V22.2088C0.107221 22.1758 0.0907336 22.1263 0.074246 22.0604C0.0577584 21.9944 0.033027 21.9203 5.18046e-05 21.8378C0.0165394 21.8213 0.0247832 21.7719 0.0247832 21.6894C0.00829561 21.7059 5.18046e-05 21.6812 5.18046e-05 21.6152C0.033027 21.5823 0.0495146 21.541 0.0495146 21.4916L5.18046e-05 21.4174C5.18046e-05 21.4174 0.0165394 21.3844 0.0495146 21.3185C0.0660022 21.1206 0.0907336 20.8733 0.123709 20.5765C0.156684 20.2962 0.173172 20.0984 0.173172 19.983V19.7851C0.173172 19.7027 0.181415 19.6202 0.197903 19.5378C0.197903 19.4718 0.206147 19.4059 0.222634 19.3399L0.420485 19.0432C0.436973 18.9607 0.461704 18.87 0.494679 18.7711C0.527655 18.6722 0.56063 18.5568 0.593605 18.4249C0.676043 18.2435 0.840919 18.0292 1.08823 17.7819C1.08823 17.7489 1.09648 17.7077 1.11296 17.6582C1.11296 17.6252 1.12121 17.584 1.1377 17.5346C1.17067 17.4851 1.21189 17.4027 1.26135 17.2872C1.3273 17.1883 1.40974 17.0152 1.50867 16.7679C1.54164 16.7514 1.5911 16.6112 1.65705 16.3474C1.67354 16.3639 1.70652 16.3722 1.75598 16.3722C1.83842 16.3722 1.90437 16.298 1.95383 16.1496L2.05276 16.1001C2.15168 15.9188 2.25061 15.6962 2.34953 15.4324C2.38251 15.4324 2.42373 15.3417 2.47319 15.1603C2.5886 15.0779 2.74524 14.9048 2.94309 14.641L2.99255 14.4679C3.07499 14.4019 3.17391 14.3277 3.28933 14.2453C3.40474 14.1464 3.5284 14.0392 3.6603 13.9238L3.73449 13.7754C3.73449 13.7589 3.76747 13.7259 3.83342 13.6765C3.89937 13.627 3.9241 13.5775 3.90761 13.5281C3.99005 13.4786 4.06424 13.4044 4.13019 13.3055H4.22912L5.04525 12.4399C5.07823 12.3739 5.13594 12.275 5.21837 12.1431C5.3173 12.0112 5.42447 11.904 5.53988 11.8216C5.62232 11.7886 5.73773 11.7144 5.88612 11.599C5.9191 11.566 5.93558 11.5496 5.93558 11.5496H5.96031C5.96031 11.566 5.96856 11.5743 5.98505 11.5743C6.00153 11.5743 6.04275 11.5331 6.1087 11.4506C6.17465 11.3517 6.24885 11.2858 6.33129 11.2528L6.47967 11.0797C6.59509 11.0467 6.70226 10.9972 6.80118 10.9313L7.09796 10.6345L7.54312 10.3872C7.65854 10.3212 7.85639 10.1646 8.13668 9.91729C8.15316 9.9008 8.18614 9.89256 8.2356 9.89256C8.28506 9.82661 8.35926 9.7689 8.45818 9.71944C8.55711 9.66997 8.65603 9.60402 8.75496 9.52159C9.08471 9.38969 9.41446 9.17535 9.74422 8.87857C9.85963 8.86208 10.0245 8.79613 10.2388 8.68072L10.6345 8.33448L10.8819 8.26029L10.9561 8.16136C11.0385 8.12839 11.1539 8.08717 11.3023 8.0377C11.4507 7.97175 11.6156 7.9058 11.7969 7.83985C11.8794 7.79039 11.9041 7.76566 11.8711 7.76566C11.9041 7.76566 11.9206 7.7739 11.9206 7.79039H11.9453C11.9783 7.79039 12.0113 7.74917 12.0442 7.66673C12.2091 7.65025 12.4234 7.56781 12.6872 7.41942C12.7367 7.41942 12.8109 7.40293 12.9098 7.36996C13.0252 7.33698 13.0912 7.32049 13.1077 7.32049C13.1407 7.32049 13.1571 7.32874 13.1571 7.34523H13.1819C13.1984 7.34523 13.2808 7.29576 13.4292 7.19684C13.5776 7.09791 13.6683 7.04845 13.7012 7.04845L14.1959 7.09791C14.2288 7.09791 14.2701 7.08142 14.3195 7.04845C14.369 6.99899 14.4926 6.94128 14.6905 6.87533L16.2733 6.70221L16.3475 6.75167H16.5948L16.8916 6.70221C16.9081 6.70221 16.9328 6.7187 16.9658 6.75167C16.9988 6.78465 17.0317 6.80113 17.0647 6.80113C17.0977 6.80113 17.1142 6.7764 17.1142 6.72694C17.2131 6.74343 17.3532 6.7764 17.5346 6.82587C17.7325 6.85884 17.7819 6.87533 17.683 6.87533C17.716 6.87533 17.7325 6.86709 17.7325 6.8506H17.7572C17.7407 6.8506 17.7984 6.88357 17.9303 6.94952C17.9963 6.9825 18.0869 6.99899 18.2023 6.99899C18.2353 6.99899 18.2683 6.9825 18.3013 6.94952L18.4497 6.55382L18.5239 6.4549C18.5733 6.38895 18.6063 6.31475 18.6228 6.23231C18.6558 6.13339 18.6805 6.04271 18.697 5.96027L18.8948 5.71295C18.8948 5.67998 18.8948 5.63052 18.8948 5.56457C18.8948 5.49862 18.9031 5.43267 18.9196 5.36671L19.1421 4.87209C19.1257 4.83911 19.1174 4.77316 19.1174 4.67424C19.1504 4.64126 19.1669 4.57531 19.1669 4.47639C19.2163 4.42692 19.3235 4.1219 19.4884 3.56132L19.6862 3.26455C19.6862 3.23157 19.6862 3.19035 19.6862 3.14089C19.6862 3.09143 19.6945 3.03372 19.711 2.96777C19.7769 2.76992 19.8099 2.67924 19.8099 2.69573V2.57207C19.7934 2.52261 19.7852 2.47314 19.7852 2.42368C19.7192 2.40719 19.6533 2.39895 19.5873 2.39895C19.5378 2.38246 19.4966 2.37422 19.4636 2.37422C19.4472 2.37422 19.3812 2.39895 19.2658 2.44841C19.1669 2.49788 19.1092 2.52261 19.0927 2.52261C19.0597 2.52261 19.035 2.51436 19.0185 2.49787H18.9443C18.9113 2.49787 18.8701 2.51436 18.8206 2.54734C18.7712 2.56383 18.7299 2.57207 18.697 2.57207C18.6805 2.57207 18.6393 2.55558 18.5733 2.52261C18.5239 2.48963 18.4744 2.47314 18.4249 2.47314C18.359 2.45666 18.2683 2.44841 18.1529 2.44841C18.0375 2.43192 17.9138 2.42368 17.7819 2.42368C17.7654 2.42368 17.7489 2.44017 17.7325 2.47314C17.716 2.50612 17.6912 2.52261 17.6583 2.52261L17.3367 2.44841C17.3038 2.44841 17.2708 2.4649 17.2378 2.49787C17.2048 2.51436 17.1801 2.52261 17.1636 2.52261C17.1307 2.52261 17.1059 2.51436 17.0894 2.49787H17.0152C16.9988 2.49787 16.974 2.51436 16.941 2.54734C16.9081 2.56383 16.8833 2.57207 16.8669 2.57207C16.8833 2.57207 16.8833 2.57207 16.8669 2.57207C16.8504 2.57207 16.8256 2.57207 16.7927 2.57207C16.7762 2.55558 16.7432 2.54734 16.6937 2.54734C16.6772 2.53085 16.669 2.51436 16.669 2.49787C16.669 2.4649 16.6608 2.44017 16.6443 2.42368C16.6113 2.45666 16.5783 2.48139 16.5453 2.49787C16.5289 2.51436 16.5206 2.52261 16.5206 2.52261H16.1002C15.9683 2.52261 15.8694 2.53085 15.8034 2.54734C15.7375 2.54734 15.6962 2.54734 15.6797 2.54734L15.1851 2.42368C15.1686 2.42368 15.1521 2.44017 15.1357 2.47314C15.1357 2.48963 15.1192 2.49787 15.0862 2.49787L14.5174 2.37422C14.5009 2.37422 14.4844 2.38246 14.4679 2.39895H14.4184C14.3855 2.39895 14.2618 2.38246 14.0475 2.34949C13.8331 2.30002 13.7095 2.27529 13.6765 2.27529C13.66 2.27529 13.6353 2.28354 13.6023 2.30002C13.5858 2.31651 13.5611 2.32476 13.5281 2.32476C13.5116 2.32476 13.4869 2.30002 13.4539 2.25056C13.4209 2.2011 13.3715 2.17637 13.3055 2.17637C13.2231 2.17637 13.1819 2.19285 13.1819 2.22583L13.083 2.07744C13.05 2.07744 13.0088 2.07744 12.9593 2.07744C12.9098 2.07744 12.8521 2.0692 12.7862 2.05271C12.7697 2.01973 12.7367 1.995 12.6872 1.97852C12.6378 1.96203 12.5224 1.95378 12.341 1.95378C12.2915 1.95378 12.2751 1.96203 12.2915 1.97852C12.2751 1.96203 12.2586 1.94554 12.2421 1.92905C12.2256 1.91257 12.2009 1.88783 12.1679 1.85486C11.7062 1.70647 11.5001 1.63228 11.5496 1.63228H11.5001C11.5001 1.64876 11.4837 1.65701 11.4507 1.65701C11.4342 1.65701 11.2528 1.50862 10.9066 1.21184V1.13765C10.9066 1.12116 10.9148 1.07994 10.9313 1.01399C10.9478 0.931554 10.9561 0.865604 10.9561 0.816141C11.088 0.700728 11.1457 0.61829 11.1292 0.568828C11.1457 0.568828 11.1704 0.577072 11.2034 0.593559C11.2528 0.610046 11.294 0.61829 11.327 0.61829C11.3435 0.61829 11.3682 0.610046 11.4012 0.593559C11.4507 0.560583 11.4919 0.544095 11.5249 0.544095L13.4045 1.06345C13.4539 1.06345 13.4869 1.05521 13.5034 1.03872C13.5858 1.13765 13.66 1.18711 13.726 1.18711C13.7425 1.18711 13.7507 1.17887 13.7507 1.16238C13.7507 1.14589 13.7672 1.13765 13.8002 1.13765C13.8166 1.13765 13.8744 1.16238 13.9733 1.21184C14.0722 1.24482 14.1299 1.26955 14.1464 1.28604L15.1604 1.45916C15.1604 1.50862 15.1686 1.54159 15.1851 1.55808L15.0367 1.63228V1.50862C14.9378 1.47564 14.8801 1.45916 14.8636 1.45916C14.8966 1.45916 14.8224 1.48389 14.641 1.53335C14.6245 1.51686 14.5751 1.50862 14.4926 1.50862C14.4597 1.54159 14.4432 1.56633 14.4432 1.58281C14.4432 1.5993 14.4762 1.64052 14.5421 1.70647C14.6245 1.75593 14.6905 1.77242 14.74 1.75593L15.0862 1.70647C15.1027 1.70647 15.1274 1.72296 15.1604 1.75593C15.2099 1.77242 15.2511 1.78066 15.284 1.78066H15.3088C15.3088 1.76418 15.317 1.75593 15.3335 1.75593C15.4159 1.75593 15.5396 1.83013 15.7045 1.97852L15.8281 2.1269C15.9271 2.1269 16.0095 2.13515 16.0754 2.15163C16.1084 2.08569 16.1332 2.01974 16.1496 1.95378C16.1826 1.88783 16.2403 1.85486 16.3228 1.85486C16.3557 1.85486 16.4299 1.87959 16.5453 1.92905C16.6772 1.97852 16.7514 2.00325 16.7679 2.00325H16.8916C16.941 1.98676 16.9905 1.97852 17.04 1.97852C17.1554 1.97852 17.2213 1.98676 17.2378 2.00325C17.3697 2.08568 17.4522 2.1269 17.4851 2.1269C17.5016 2.1269 17.5346 2.11866 17.5841 2.10217C17.6335 2.08569 17.6747 2.07744 17.7077 2.07744C17.8066 2.07744 17.8644 2.10217 17.8808 2.15163H17.955C17.9715 2.08569 18.021 2.05271 18.1034 2.05271C18.1364 2.05271 18.1694 2.0692 18.2023 2.10217C18.2518 2.11866 18.293 2.1269 18.326 2.1269L19.9583 1.95378C20.0737 1.68998 20.1067 1.41794 20.0572 1.13765C20.1232 0.989261 20.1561 0.873848 20.1561 0.79141C20.1561 0.824385 20.1314 0.783166 20.0819 0.667752C20.0654 0.634777 20.049 0.601803 20.0325 0.568828C20.0325 0.519365 20.0325 0.461658 20.0325 0.395708C20.0325 0.329757 20.0572 0.263807 20.1067 0.197856H20.2303C20.3128 0.395708 20.3787 0.511121 20.4282 0.544095L20.3787 0.643021L20.4282 1.16238C20.4447 1.27779 20.4529 1.38496 20.4529 1.48389C20.4694 1.56633 20.4776 1.64876 20.4776 1.7312L20.4282 1.85486C20.8074 1.8054 21.0217 1.78066 21.0712 1.78066C21.368 1.78066 21.5988 1.70647 21.7637 1.55808C21.7802 1.62403 21.8131 1.65701 21.8626 1.65701C21.8131 1.65701 22.1181 1.55808 22.7777 1.36023C22.8271 1.34374 22.9178 1.3355 23.0497 1.3355C23.0002 1.35199 22.9013 1.43443 22.7529 1.58281C22.621 1.5993 22.5386 1.64052 22.5056 1.70647C22.4891 1.68998 22.4644 1.68174 22.4314 1.68174C22.4149 1.68174 22.3407 1.71471 22.2088 1.78066C22.0769 1.83013 21.9945 1.85486 21.9615 1.85486C21.945 1.85486 21.9285 1.84662 21.9121 1.83013H21.8626C21.8461 1.83013 21.7966 1.84662 21.7142 1.87959C21.6483 1.89608 21.607 1.92081 21.5905 1.95378C21.5246 1.95378 21.3762 2.00325 21.1454 2.10217C21.1124 2.10217 21.0959 2.09393 21.0959 2.07744H21.0465C21.03 2.07744 20.9805 2.10217 20.8981 2.15163C20.8321 2.18461 20.7909 2.2011 20.7744 2.2011H20.7249C20.7249 2.18461 20.7085 2.17637 20.6755 2.17637C20.626 2.17637 20.5436 2.20934 20.4282 2.27529C20.4117 2.29178 20.4034 2.30827 20.4034 2.32476C20.4694 2.34124 20.4941 2.37422 20.4776 2.42368V2.62153C20.4776 2.63802 20.4611 2.67099 20.4282 2.72046C20.3952 2.75343 20.3787 2.78641 20.3787 2.81938C20.3787 2.85236 20.3705 2.90182 20.354 2.96777C20.354 3.01723 20.3457 3.08318 20.3292 3.16562C20.3787 3.23157 20.4034 3.34699 20.4034 3.51186C20.3705 3.56132 20.3292 3.61903 20.2798 3.68498C20.2303 3.75093 20.1891 3.82513 20.1561 3.90756C20.1891 4.02298 20.1891 4.24556 20.1561 4.57531C20.0242 5.00399 19.9171 5.31725 19.8346 5.5151C19.7687 5.69647 19.7357 5.77066 19.7357 5.73769C19.6533 5.86959 19.645 5.94378 19.711 5.96027C19.711 5.97676 19.6862 6.02622 19.6368 6.10866C19.5873 6.17461 19.5543 6.2488 19.5378 6.33124C19.5873 6.33124 19.6368 6.35597 19.6862 6.40543C19.6368 6.7187 19.6038 6.86709 19.5873 6.8506C19.5543 6.96601 19.4884 7.06494 19.3895 7.14737C19.307 7.22981 19.2658 7.31225 19.2658 7.39469C19.3482 7.41118 19.4719 7.48537 19.6368 7.61727L19.8099 7.86458C19.9583 8.21082 20.0325 8.39219 20.0325 8.40867C20.0325 8.42516 20.0242 8.45814 20.0077 8.5076L19.8841 8.55706C19.8511 8.55706 19.6203 8.2438 19.1916 7.61727L19.1669 7.642C19.1504 7.70795 19.1174 7.79863 19.0679 7.91405C19.035 8.02946 19.002 8.16136 18.969 8.30975C18.9031 8.67248 18.8041 8.91979 18.6722 9.05169C18.5568 9.1671 18.4826 9.43915 18.4497 9.86783C18.4167 9.93378 18.3837 10.008 18.3507 10.0904C18.3178 10.1564 18.2848 10.2306 18.2518 10.313C18.2188 10.346 18.1694 10.4614 18.1034 10.6592C17.8396 10.9725 17.716 11.1621 17.7325 11.2281C17.5841 11.327 17.5099 11.4671 17.5099 11.6485C17.4934 11.6485 17.4769 11.6567 17.4604 11.6732L17.2873 11.9947C17.2873 11.9947 17.2873 12.0112 17.2873 12.0442C17.2873 12.0772 17.2955 12.1266 17.312 12.1926V12.2173C17.312 12.2338 17.312 12.2668 17.312 12.3162C17.312 12.3492 17.3038 12.3987 17.2873 12.4646C17.2213 12.4976 17.1801 12.5388 17.1636 12.5883C17.1471 12.6213 17.1224 12.679 17.0894 12.7614C17.0235 12.8768 16.9081 13.0087 16.7432 13.1571C16.7432 13.256 16.7762 13.3632 16.8421 13.4786C16.8256 13.4786 16.7762 13.5446 16.6937 13.6765C16.4464 13.6929 16.3228 13.8084 16.3228 14.0227C16.3228 14.0886 16.331 14.1381 16.3475 14.1711H16.298C16.2321 14.1711 16.1661 14.2205 16.1002 14.3195C16.0507 14.4184 15.96 14.5338 15.8281 14.6657C15.8116 14.7482 15.7292 14.9048 15.5808 15.1356C15.5478 15.1356 15.4901 15.1686 15.4077 15.2345C15.4077 15.2675 15.3747 15.3582 15.3088 15.5066C15.2428 15.6385 15.2263 15.7457 15.2593 15.8281C15.2428 15.8446 15.2181 15.8693 15.1851 15.9023C15.1686 15.9188 15.1274 15.9435 15.0615 15.9765C15.0615 15.993 15.045 16.0507 15.012 16.1496L14.8141 16.3722C14.7317 16.4052 14.641 16.4464 14.5421 16.4958C14.4432 16.5453 14.3525 16.6112 14.2701 16.6937L14.4432 16.7679C14.4102 16.8338 14.3607 16.9245 14.2948 17.0399C14.2288 17.1718 14.0887 17.3202 13.8744 17.4851C13.8579 17.551 13.8249 17.6087 13.7754 17.6582C13.7425 17.7242 13.7012 17.8066 13.6518 17.9055C13.5693 17.955 13.4622 18.0786 13.3303 18.2765C13.1654 18.326 13.0252 18.4249 12.9098 18.5733C12.745 18.7546 12.646 18.87 12.6131 18.9195C12.5801 18.9855 12.5636 19.0184 12.5636 19.0184C12.5636 19.0349 12.5471 19.0514 12.5141 19.0679C12.4976 19.1009 12.3328 19.274 12.0195 19.5873C11.9865 19.5873 11.9536 19.5955 11.9206 19.612C11.8876 19.6285 11.8299 19.6862 11.7475 19.7851C11.6815 19.9005 11.632 19.9582 11.5991 19.9582C11.5661 19.9582 11.5331 19.9747 11.5001 20.0077C11.4507 20.0736 11.3765 20.1478 11.2776 20.2303C11.1951 20.3127 11.088 20.3787 10.9561 20.4281C10.9396 20.4611 10.9066 20.4941 10.8571 20.5271C10.8077 20.5765 10.7582 20.6177 10.7087 20.6507C10.5604 20.7661 10.3378 20.9887 10.041 21.3185C9.95855 21.3185 9.90909 21.3267 9.8926 21.3432L8.80442 22.0851C8.49116 22.3654 8.32628 22.5056 8.3098 22.5056C8.29331 22.5056 8.27682 22.4973 8.26033 22.4808C8.26033 22.4643 8.25209 22.4561 8.2356 22.4561C8.16965 22.4561 8.12019 22.4726 8.08721 22.5056C8.05424 22.555 8.02126 22.5962 7.98829 22.6292C7.72449 22.7611 7.58434 22.8518 7.56785 22.9013C7.56785 22.8683 7.54312 22.8518 7.49366 22.8518C7.49366 22.8518 7.40298 22.9095 7.22161 23.0249C7.05674 23.0579 6.8424 23.1321 6.5786 23.2475C6.41372 23.3464 6.33953 23.3959 6.35602 23.3959C6.33953 23.3959 6.33129 23.3876 6.33129 23.3712H6.28182C6.28182 23.3712 6.23236 23.3959 6.13343 23.4454C6.051 23.4948 5.9191 23.536 5.73773 23.569L5.41622 23.6432C5.39974 23.6267 5.33379 23.6185 5.21837 23.6185C5.21837 23.635 5.21013 23.6514 5.19364 23.6679H5.14418C5.12769 23.6679 5.06174 23.6679 4.94633 23.6679C4.8474 23.6844 4.68253 23.6927 4.4517 23.6927H3.73449C3.718 23.6927 3.68503 23.6762 3.63556 23.6432C3.5861 23.6102 3.55313 23.5937 3.53664 23.5937C3.52015 23.5937 3.47893 23.6102 3.41298 23.6432C3.11621 23.3629 2.89362 23.1898 2.74524 23.1238C2.6628 23.0414 2.61333 22.9755 2.59685 22.926L2.94309 23.0002C3.38825 23.1651 3.59435 23.2475 3.56137 23.2475C3.57786 23.2475 3.59435 23.2393 3.61083 23.2228H3.6603C3.67678 23.2228 3.69327 23.231 3.70976 23.2475C3.74273 23.2805 3.76747 23.297 3.78395 23.297H4.10546C4.10546 23.297 4.1137 23.297 4.13019 23.297C4.16317 23.3135 4.20439 23.3299 4.25385 23.3464C4.25385 23.3629 4.32804 23.3712 4.47643 23.3712C4.62482 23.3712 4.69901 23.3629 4.69901 23.3464C4.83091 23.2805 4.88862 23.2475 4.87213 23.2475C4.90511 23.2475 4.9216 23.2557 4.9216 23.2722H4.97106C5.03701 23.2722 5.10296 23.264 5.16891 23.2475C5.25135 23.2475 5.33379 23.2393 5.41622 23.2228C5.43271 23.2063 5.46569 23.1816 5.51515 23.1486C5.5811 23.1156 5.62232 23.0991 5.63881 23.0991C5.67178 23.0991 5.68827 23.1074 5.68827 23.1238C5.68827 23.1403 5.70476 23.1486 5.73773 23.1486C5.90261 23.1486 5.98505 23.0826 5.98505 22.9507L6.08397 22.9755C6.06748 22.9755 6.1087 22.9507 6.20763 22.9013C6.32304 22.8683 6.47143 22.8023 6.65279 22.7034C6.68577 22.6704 6.72699 22.6292 6.77645 22.5798C6.8424 22.5303 7.01552 22.4479 7.29581 22.3324L7.4442 22.1099H7.51839C7.69975 22.1099 7.83166 22.0192 7.91409 21.8378L8.21087 21.6894C8.21087 21.6565 8.22736 21.6152 8.26033 21.5658C8.3098 21.5163 8.38399 21.4916 8.48292 21.4916C8.51589 21.4091 8.61482 21.3432 8.77969 21.2937C8.79618 21.2772 8.81267 21.2443 8.82915 21.1948C8.84564 21.1453 8.88686 21.0959 8.95281 21.0464C8.9693 21.0299 8.97754 20.9805 8.97754 20.898L9.07647 20.9228C9.10944 20.9228 9.15891 20.8733 9.22486 20.7744C9.22486 20.7414 9.22486 20.7084 9.22486 20.6754C9.22486 20.6425 9.2331 20.6012 9.24959 20.5518C9.365 20.4364 9.46393 20.3869 9.54636 20.4034L9.64529 20.4281L9.74422 20.2303C9.79368 20.1149 9.78543 20.0242 9.71948 19.9582L9.99153 19.7356C10.0245 19.7356 10.0575 19.7274 10.0905 19.7109C10.1234 19.7109 10.1646 19.7027 10.2141 19.6862C10.2141 19.6862 10.2141 19.6779 10.2141 19.6615C10.2141 19.6615 10.2224 19.6532 10.2388 19.6367C10.4202 19.5378 10.5191 19.4966 10.5356 19.5131C10.5686 19.4471 10.5768 19.3729 10.5604 19.2905C10.6428 19.1421 10.7087 19.0679 10.7582 19.0679H10.7829C10.7664 19.0844 10.7747 19.0926 10.8077 19.0926C10.7747 19.0926 10.8324 19.0432 10.9808 18.9442C11.0138 18.9113 11.0138 18.8783 10.9808 18.8453C11.1457 18.7629 11.2446 18.6804 11.2776 18.598C11.327 18.5321 11.4177 18.4084 11.5496 18.227C11.5826 18.227 11.6073 18.2188 11.6238 18.2023L11.8217 17.8066C11.9041 17.7571 11.9948 17.6665 12.0937 17.5346C12.1926 17.4851 12.2503 17.4027 12.2668 17.2872C12.2998 17.1718 12.3245 17.0647 12.341 16.9657C12.374 16.9492 12.407 16.9328 12.4399 16.9163C12.4894 16.8998 12.5471 16.8751 12.6131 16.8421C12.646 16.8091 12.6955 16.7019 12.7614 16.5206H12.7862C12.8521 16.5206 12.9675 16.4464 13.1324 16.298V16.1991C13.1324 16.2155 13.1571 16.2238 13.2066 16.2238C13.1571 16.2238 13.289 16.0259 13.6023 15.6302L13.726 15.4818H13.7754C13.8744 15.4818 13.9486 15.4324 13.998 15.3335C14.064 15.251 14.1052 15.1603 14.1217 15.0614C14.1546 15.0614 14.1794 15.0697 14.1959 15.0861C14.2124 15.0861 14.2288 15.0861 14.2453 15.0861C14.3772 15.0861 14.4597 15.0037 14.4926 14.8388C14.4926 14.8059 14.4926 14.7564 14.4926 14.6904C14.5091 14.6245 14.5256 14.5503 14.5421 14.4679C14.5421 14.4349 14.674 14.2618 14.9378 13.9485C14.9378 13.899 15.0285 13.7424 15.2098 13.4786L15.4077 13.0087C15.4901 12.9757 15.5643 12.9263 15.6303 12.8603C15.6633 12.8273 15.6633 12.7861 15.6303 12.7367C15.6633 12.6542 15.7045 12.5883 15.7539 12.5388C15.8034 12.4894 15.8776 12.3987 15.9765 12.2668V12.1431L16.1002 11.8463L16.2733 11.7474C16.2898 11.632 16.2898 11.5248 16.2733 11.4259C16.4052 11.4094 16.5618 11.1209 16.7432 10.5603H16.7927C16.9081 10.5603 16.9823 10.4531 17.0152 10.2388C16.9988 10.2223 16.9905 10.1646 16.9905 10.0657C17.0565 9.99973 17.1554 9.85958 17.2873 9.64524C17.2873 9.61227 17.2955 9.56281 17.312 9.49686C17.345 9.43091 17.4027 9.33198 17.4851 9.20008C17.5181 9.1671 17.5511 9.13413 17.5841 9.10115C17.617 9.05169 17.65 8.99398 17.683 8.92803C17.6995 8.8456 17.716 8.75491 17.7325 8.65599C17.7489 8.54058 17.7737 8.41692 17.8066 8.28502C17.8396 8.25204 17.8808 8.21082 17.9303 8.16136C17.9798 8.09541 18.0292 8.02122 18.0787 7.93878V7.61727C18.0952 7.60078 18.1282 7.5101 18.1776 7.34523C17.6335 7.16386 17.279 7.07318 17.1142 7.07318H17.04C17.0235 7.08967 16.9905 7.09791 16.941 7.09791C16.9246 7.09791 16.8504 7.08967 16.7185 7.07318C16.5866 7.0402 16.5041 7.02372 16.4712 7.02372C16.4547 7.02372 16.4382 7.03196 16.4217 7.04845C16.4217 7.06494 16.4134 7.07318 16.397 7.07318C16.3805 7.07318 16.3557 7.07318 16.3228 7.07318C16.2898 7.07318 16.2568 7.06494 16.2238 7.04845H16.0507C16.0342 7.04845 15.993 7.06494 15.9271 7.09791C15.8776 7.1144 15.8446 7.12264 15.8281 7.12264C15.4489 7.12264 15.2263 7.13089 15.1604 7.14737C15.0944 7.14737 15.0038 7.15562 14.8883 7.17211C14.8554 7.17211 14.7647 7.2463 14.6163 7.39469C14.0227 7.41118 13.4704 7.57605 12.9593 7.88932C12.8604 7.93878 12.7367 7.98824 12.5883 8.0377C12.4399 8.08717 12.3657 8.12839 12.3657 8.16136C12.3657 8.16136 12.3575 8.16136 12.341 8.16136C12.341 8.16136 12.341 8.15312 12.341 8.13663H12.3163C12.2998 8.13663 12.2668 8.15312 12.2174 8.18609C12.1844 8.21907 12.0937 8.27677 11.9453 8.35921H11.7475C11.7145 8.44165 11.6403 8.49111 11.5249 8.5076C11.4095 8.5076 11.1621 8.64774 10.7829 8.92803C10.7335 8.92803 10.684 8.93628 10.6345 8.95276C10.6016 9.01872 10.4862 9.09291 10.2883 9.17535C10.1069 9.25779 9.9668 9.34847 9.86787 9.44739H9.74422L9.67002 9.59578L9.37324 9.7689L9.1012 9.89256C9.06822 9.94202 9.02701 9.98324 8.97754 10.0162C8.92808 10.0327 8.87862 10.0574 8.82915 10.0904L8.48292 10.4366L8.26033 10.7582L8.06248 10.8818L7.98829 10.9807C7.708 11.0302 7.42771 11.2693 7.14742 11.6979C7.08147 11.7309 6.99079 11.7721 6.87538 11.8216C6.77645 11.8711 6.66104 11.9288 6.52914 11.9947L6.13343 12.5388C6.13343 12.5883 6.12519 12.6213 6.1087 12.6377C6.04275 12.7037 5.99329 12.7367 5.96031 12.7367C5.92734 12.7367 5.90261 12.7284 5.88612 12.7119C5.88612 12.6954 5.86963 12.6872 5.83666 12.6872C5.75422 12.6872 5.713 12.7202 5.713 12.7861V12.9345L5.36676 13.2808C5.33379 13.3302 5.28432 13.3879 5.21837 13.4539C5.16891 13.5033 5.10296 13.5693 5.02052 13.6517C4.98755 13.6847 4.98755 13.7177 5.02052 13.7507C4.97106 13.7342 4.94633 13.7177 4.94633 13.7012C4.91335 13.7342 4.83916 13.7919 4.72375 13.8743C4.60833 13.9567 4.48468 14.0639 4.35277 14.1958C4.33629 14.2453 4.30331 14.303 4.25385 14.3689C4.20439 14.4349 4.14668 14.5091 4.08073 14.5915C4.08073 14.608 4.08073 14.6245 4.08073 14.641C4.09722 14.641 4.10546 14.6575 4.10546 14.6904C4.10546 14.7399 4.08073 14.8141 4.03127 14.913C3.94883 14.913 3.82517 14.9872 3.6603 15.1356C3.6603 15.1851 3.67678 15.2428 3.70976 15.3087C3.61083 15.3747 3.51191 15.4489 3.41298 15.5313C3.31406 15.5973 3.27284 15.7044 3.28933 15.8528C3.25635 15.8858 3.19864 15.9188 3.11621 15.9517C3.05026 16.0012 2.97606 16.0507 2.89362 16.1001C2.91011 16.1166 2.91835 16.1908 2.91835 16.3227C2.68753 16.5535 2.58036 16.7102 2.59685 16.7926C2.5309 16.7761 2.48143 16.8173 2.44846 16.9163C2.43197 17.0152 2.36602 17.1389 2.25061 17.2872V17.4356C2.15168 17.5016 2.04451 17.5923 1.9291 17.7077C1.9291 17.7406 1.92086 17.7819 1.90437 17.8313C1.90437 17.8808 1.89612 17.9467 1.87964 18.0292C1.73125 18.0951 1.6653 18.1858 1.68179 18.3012C1.69827 18.4331 1.60759 18.6392 1.40974 18.9195C1.34379 18.969 1.2696 19.0432 1.18716 19.1421C1.15418 19.1751 1.12945 19.2905 1.11296 19.4883C1.11296 19.5048 1.07999 19.5708 1.01404 19.6862C1.01404 19.7521 0.964576 19.884 0.86565 20.0819C0.849163 20.1478 0.849163 20.3457 0.86565 20.6754C0.86565 20.8568 0.791456 20.9969 0.643068 21.0959L0.568874 21.7389C0.568874 21.8213 0.610093 21.9285 0.69253 22.0604C0.659555 22.1593 0.643068 22.2665 0.643068 22.3819L0.717262 22.5056C0.733749 22.5385 0.741993 22.588 0.741993 22.6539C0.741993 22.7199 0.750237 22.7941 0.766725 22.8765C0.783212 22.893 0.7997 22.9178 0.816187 22.9507C0.832675 23.0002 0.882138 23.0991 0.964576 23.2475C0.981063 23.264 0.997551 23.2887 1.01404 23.3217C1.03053 23.3712 1.05526 23.4124 1.08823 23.4454C1.28608 23.8411 1.44272 24.0389 1.55813 24.0389C1.5911 24.0389 1.61584 24.0307 1.63232 24.0142C1.63232 24.1131 1.69827 24.1791 1.83017 24.212C1.96207 24.2615 2.03627 24.3274 2.05276 24.4099C2.01978 24.4429 1.98681 24.4593 1.95383 24.4593ZM20.0572 8.40867C20.0572 8.40867 20.049 8.40867 20.0325 8.40867C20.049 8.39219 20.0572 8.39219 20.0572 8.40867ZM23.4379 25.6959C23.3719 25.6959 23.2153 25.6547 22.968 25.5723C23.0009 25.5558 23.0422 25.531 23.0916 25.4981C23.1411 25.4651 23.1988 25.4321 23.2647 25.3991L23.2153 25.3249C23.1164 25.292 23.0669 25.2755 23.0669 25.2755C23.0504 25.2755 22.968 25.292 22.8196 25.3249C22.6712 25.3579 22.5805 25.3744 22.5475 25.3744C22.531 25.3744 22.4981 25.3662 22.4486 25.3497C22.4156 25.3332 22.3827 25.3249 22.3497 25.3249C22.3332 25.3249 22.3085 25.3414 22.2755 25.3744C22.2425 25.4074 22.2095 25.4239 22.1766 25.4239C22.1601 25.4239 22.0859 25.4156 21.954 25.3991C21.8221 25.3826 21.7396 25.3744 21.7067 25.3744C21.6737 25.3744 21.6572 25.3909 21.6572 25.4239C21.6572 25.4568 21.6407 25.4733 21.6077 25.4733C21.5913 25.4733 21.5748 25.4568 21.5583 25.4239C21.5583 25.4074 21.5418 25.3991 21.5088 25.3991C21.5088 25.3991 21.5006 25.3991 21.4841 25.3991C21.4676 25.4156 21.4511 25.4239 21.4346 25.4239C21.4346 25.3579 21.4264 25.3167 21.4099 25.3002L21.3357 25.3991C21.2533 25.3332 21.1956 25.3002 21.1626 25.3002C21.1461 25.3002 21.1378 25.3085 21.1378 25.3249H21.0884C21.0554 25.3249 21.0389 25.3167 21.0389 25.3002C21.0389 25.2837 21.0307 25.2755 21.0142 25.2755C20.9647 25.2755 20.94 25.3085 20.94 25.3744C20.8081 25.2425 20.7339 25.1766 20.7174 25.1766C20.6844 25.1766 20.6679 25.1848 20.6679 25.2013H20.6432C20.6102 25.2013 20.5938 25.1766 20.5938 25.1271C20.6102 25.0941 20.6102 25.0776 20.5938 25.0776C20.5443 25.0776 20.5113 25.0859 20.4948 25.1024H20.4206C20.4041 25.1024 20.3547 25.0776 20.2722 25.0282C20.2063 24.9952 20.1651 24.9787 20.1486 24.9787C20.1156 24.9787 20.0991 24.9869 20.0991 25.0034C20.1156 25.0199 20.1074 25.0282 20.0744 25.0282C20.0414 25.0282 20.0167 25.0117 20.0002 24.9787C19.9837 24.9457 19.959 24.9292 19.926 24.9292C19.9095 24.9292 19.893 24.9375 19.8765 24.954C19.8601 24.9705 19.8436 24.9787 19.8271 24.9787C19.6457 24.9787 19.4066 24.8798 19.1099 24.6819C19.0769 24.6654 18.9203 24.517 18.64 24.2368C18.5905 24.2203 18.5328 24.1708 18.4669 24.0884C18.3844 24.0059 18.269 23.8493 18.1206 23.6185C18.0547 23.4701 18.0217 23.1321 18.0217 22.6045C18.0547 22.5056 18.0794 22.3737 18.0959 22.2088C18.0959 22.0439 18.1206 21.8543 18.1701 21.64L18.4669 20.9969L18.64 20.626L18.9862 20.0077C19.1016 19.9417 19.2088 19.7769 19.3077 19.5131C19.3737 19.4801 19.4479 19.4306 19.5303 19.3647C19.5963 19.2987 19.6869 19.2245 19.8024 19.1421C19.8353 19.1091 19.8765 19.0597 19.926 18.9937C19.959 18.9442 20.0084 18.8865 20.0744 18.8206C20.0909 18.7876 20.1074 18.7464 20.1239 18.6969C20.1403 18.6475 20.1898 18.5815 20.2722 18.4991C20.3382 18.4331 20.4124 18.3672 20.4948 18.3012C20.5773 18.2518 20.6762 18.1116 20.7916 17.8808C20.8576 17.8808 21.0224 17.7489 21.2862 17.4851C21.3522 17.4191 21.4346 17.3367 21.5335 17.2378C21.649 17.1389 21.7809 17.0317 21.9292 16.9163L22.325 16.4711C22.3579 16.4546 22.3991 16.4216 22.4486 16.3722C22.5146 16.3392 22.63 16.2238 22.7948 16.0259C22.8113 16.0259 22.8361 16.0177 22.869 16.0012C22.902 15.9847 23.0669 15.8776 23.3637 15.6797C23.5121 15.5973 23.6934 15.4571 23.9078 15.2593V15.2098C24.1716 15.0284 24.3282 14.9378 24.3777 14.9378H24.4271C24.4271 14.9542 24.4436 14.9625 24.4766 14.9625C24.526 14.9625 24.6497 14.8388 24.8476 14.5915L25.6884 14.27C25.7709 14.2205 25.8451 14.1216 25.911 13.9732C25.944 13.9567 25.9687 13.9485 25.9852 13.9485C26.0017 13.932 26.0099 13.9238 26.0099 13.9238H26.0594C26.0429 13.9403 26.0511 13.9485 26.0841 13.9485C26.1006 13.9485 26.1336 13.9238 26.183 13.8743C26.249 13.8248 26.2902 13.7919 26.3067 13.7754L27.0981 13.4291L27.3702 13.1818L27.7164 13.1076C27.8483 13.0417 27.9472 13.0005 28.0132 12.984C28.0956 12.951 28.1368 12.9345 28.1368 12.9345C28.1698 12.9345 28.1863 12.9428 28.1863 12.9592H28.211C28.3264 12.9592 28.4006 12.8686 28.4336 12.6872C28.5655 12.6872 28.7056 12.613 28.854 12.4646C28.9365 12.3987 29.0931 12.3162 29.3239 12.2173C29.3899 12.2173 29.4558 12.2173 29.5218 12.2173C29.6042 12.2173 29.7031 12.2091 29.8186 12.1926C29.8515 12.1596 29.8928 12.1349 29.9422 12.1184C30.0082 12.0854 30.1153 12.0607 30.2637 12.0442C30.3132 12.0112 30.3379 11.9617 30.3379 11.8958C30.4698 11.8628 30.5687 11.8381 30.6347 11.8216C30.7006 11.7886 30.7336 11.7721 30.7336 11.7721H30.7831C30.7831 11.7886 30.7913 11.7969 30.8078 11.7969C30.8408 11.7969 30.8573 11.7886 30.8573 11.7721C30.8573 11.7392 30.8655 11.7227 30.882 11.7227C30.915 11.7227 30.9232 11.7309 30.9067 11.7474C30.9067 11.7639 30.9232 11.7721 30.9562 11.7721C31.0551 11.7721 31.2118 11.7227 31.4261 11.6238C31.8053 11.4754 31.9455 11.4012 31.8465 11.4012C31.8795 11.4012 31.9207 11.4094 31.9702 11.4259C32.0197 11.4424 32.0526 11.4506 32.0691 11.4506H32.168C32.2175 11.3682 32.267 11.3105 32.3164 11.2775C32.3989 11.261 32.4978 11.2445 32.6132 11.2281C32.7286 11.2116 32.8605 11.1868 33.0089 11.1539C33.0584 11.1703 33.1326 11.1539 33.2315 11.1044H33.281C33.2974 11.1044 33.3139 11.1126 33.3304 11.1291H33.4046L33.9982 11.0055C34.0806 10.9725 34.1218 10.9395 34.1218 10.9065C34.4021 10.8406 34.6082 10.7994 34.7401 10.7829C34.8885 10.7499 34.9462 10.7334 34.9132 10.7334H34.9627C34.9627 10.7499 34.9792 10.7582 35.0122 10.7582C34.9957 10.7582 35.0699 10.7334 35.2347 10.684C35.3337 10.651 35.482 10.6345 35.6799 10.6345C35.7294 10.6345 35.7623 10.6675 35.7788 10.7334C35.7953 10.7334 35.8118 10.7169 35.8283 10.684C35.8613 10.6345 35.8942 10.5438 35.9272 10.4119C35.9602 10.247 35.9932 10.0657 36.0261 9.86783C36.0591 9.65349 36.0838 9.41442 36.1003 9.15062L36.224 8.9775L36.2735 8.68072C36.2735 8.66423 36.257 8.61477 36.224 8.53233C36.191 8.43341 36.1663 8.35921 36.1498 8.30975L36.224 7.79039L36.1498 7.66673C36.1003 7.22157 36.0756 6.83411 36.0756 6.50436C35.8942 6.22407 35.7706 5.99324 35.7046 5.81188L35.6057 5.68822V5.63876C35.6057 5.53983 35.5562 5.46564 35.4573 5.41618C35.2924 5.30076 35.2018 5.23481 35.1853 5.21833C35.1853 5.20184 35.1688 5.16886 35.1358 5.1194C34.9874 4.9875 34.7401 4.81438 34.3939 4.60004C34.3774 4.60004 34.3526 4.60004 34.3197 4.60004C34.2867 4.60004 34.2537 4.5918 34.2207 4.57531C34.1053 4.52585 33.8827 4.47639 33.553 4.42692C33.4376 4.41043 33.3716 4.40219 33.3551 4.40219C33.3551 4.3857 33.3387 4.37746 33.3057 4.37746H33.1573C33.1078 4.39395 33.0584 4.40219 33.0089 4.40219C32.844 4.40219 32.7863 4.39395 32.8358 4.37746C32.7039 4.39395 32.5802 4.41043 32.4648 4.42692C32.3659 4.42692 32.2752 4.41868 32.1928 4.40219C32.1598 4.3857 32.1268 4.37746 32.0938 4.37746C32.0774 4.37746 32.0691 4.37746 32.0691 4.37746C32.0361 4.37746 31.9455 4.40219 31.7971 4.45165C31.6487 4.48463 31.558 4.50112 31.525 4.50112C31.525 4.50112 31.5003 4.50112 31.4508 4.50112C31.4014 4.50112 31.3189 4.49287 31.2035 4.47639C31.1046 4.4599 31.0057 4.46814 30.9067 4.50112C30.7913 4.5176 30.7171 4.56707 30.6842 4.64951L30.5852 4.62477C30.5523 4.60829 30.4781 4.64126 30.3627 4.7237C30.2472 4.80614 30.173 4.84736 30.1401 4.84736C30.1236 4.84736 30.1153 4.83911 30.1153 4.82262H30.0659C30.0494 4.82262 29.9587 4.86384 29.7938 4.94628C29.629 5.01223 29.53 5.04521 29.4971 5.04521C29.4641 5.04521 29.4476 5.03696 29.4476 5.02048C29.4641 5.00399 29.4558 4.99574 29.4229 4.99574C29.4064 4.99574 29.3734 5.01223 29.3239 5.04521C29.291 5.07818 29.258 5.09467 29.225 5.09467H29.1755C29.1591 5.07818 29.1426 5.06994 29.1261 5.06994C29.1426 5.06994 29.0849 5.1194 28.953 5.21833C28.8211 5.30076 28.7056 5.34198 28.6067 5.34198C28.5737 5.34198 28.4996 5.37496 28.3841 5.44091C28.2852 5.49037 28.2193 5.5151 28.1863 5.5151C28.1203 5.5151 28.0709 5.50686 28.0379 5.49037C27.9884 5.65525 27.9307 5.73769 27.8648 5.73769C27.8483 5.73769 27.84 5.72944 27.84 5.71295H27.7906C27.7741 5.71295 27.7659 5.7212 27.7659 5.73769C27.7823 5.75417 27.7741 5.76242 27.7411 5.76242H27.7164C27.7164 5.74593 27.7081 5.73769 27.6917 5.73769C27.6587 5.73769 27.6257 5.75417 27.5927 5.78715C27.5762 5.82012 27.5515 5.83661 27.5185 5.83661C27.4856 5.83661 27.4526 5.82837 27.4196 5.81188C27.3866 5.7789 27.3619 5.76242 27.3454 5.76242C27.3289 5.76242 27.197 5.86134 26.9497 6.05919H26.9003C26.8673 6.05919 26.8508 6.06744 26.8508 6.08393C26.8508 6.10041 26.8426 6.10866 26.8261 6.10866L26.6777 6.08393C26.6612 6.10041 26.6529 6.12514 26.6529 6.15812L26.4551 6.4549C26.4221 6.4549 26.3562 6.47963 26.2572 6.52909C26.1583 6.57855 26.0924 6.60328 26.0594 6.60328L25.9852 6.55382L25.911 6.62802C25.878 6.61153 25.8286 6.6445 25.7626 6.72694C25.7461 6.74343 25.7049 6.75167 25.639 6.75167C25.5895 6.78465 25.4988 6.86709 25.3669 6.99899C25.2185 7.01547 25.1278 7.07318 25.0949 7.17211C24.9465 7.22157 24.7651 7.33698 24.5508 7.51834C24.4683 7.60078 24.3694 7.67498 24.254 7.74093C24.1386 7.79039 23.9572 7.93878 23.7099 8.18609C23.578 8.21907 23.4626 8.34272 23.3637 8.55706C23.2318 8.60653 23.0751 8.74667 22.8938 8.9775C22.8938 9.01047 22.7866 9.13413 22.5723 9.34847C22.5723 9.41442 22.5475 9.47212 22.4981 9.52159C22.4486 9.57105 22.292 9.71119 22.0282 9.94202C21.9622 10.0904 21.8633 10.2718 21.7314 10.4861V10.7087C21.7149 10.6922 21.6819 10.7004 21.6325 10.7334C21.55 10.8159 21.4181 11.0879 21.2368 11.5496C21.1873 11.5825 21.1543 11.6155 21.1378 11.6485C21.1214 11.665 21.1049 11.7392 21.0884 11.8711L21.0142 11.97C21.0307 11.9865 21.0389 12.0442 21.0389 12.1431L20.8905 12.4399C20.874 12.4564 20.907 12.5306 20.9895 12.6625L20.8411 12.7861C20.874 12.8851 20.8905 12.9592 20.8905 13.0087L21.0389 13.256C20.907 13.256 20.7999 13.1901 20.7174 13.0582C20.635 12.9263 20.5608 12.7944 20.4948 12.6625C20.4948 12.6295 20.4866 12.5718 20.4701 12.4894C20.4536 12.4069 20.4454 12.3575 20.4454 12.341C20.4454 12.308 20.4619 12.2091 20.4948 12.0442C20.5443 11.8793 20.569 11.7804 20.569 11.7474L20.6432 11.599C20.6267 11.5496 20.6267 11.5001 20.6432 11.4506C20.7257 11.3847 20.7834 11.261 20.8163 11.0797C20.8658 10.8983 20.8988 10.7829 20.9153 10.7334C21.0801 10.4202 21.1791 10.2635 21.212 10.2635C21.245 10.2635 21.2615 10.2718 21.2615 10.2883C21.2615 10.3047 21.278 10.313 21.311 10.313C21.311 10.2965 21.3604 10.1811 21.4594 9.96675L21.6325 9.74417C21.6984 9.72768 21.7561 9.637 21.8056 9.47212C21.921 9.45564 22.0612 9.34022 22.226 9.12588L22.5475 8.70545C22.564 8.68896 22.5805 8.68072 22.597 8.68072C22.63 8.68072 22.6547 8.67248 22.6712 8.65599L23.2895 8.01297L23.4626 7.93878C23.5121 7.9058 23.5698 7.85634 23.6357 7.79039C23.7017 7.70795 23.7759 7.61727 23.8583 7.51834C23.9407 7.48537 24.0479 7.41942 24.1798 7.32049C24.3117 7.20508 24.5673 6.99899 24.9465 6.70221L25.7379 6.25704C25.7544 6.24056 25.7709 6.22407 25.7873 6.20758C25.8038 6.19109 25.8203 6.17461 25.8368 6.15812C25.9028 6.12514 25.977 6.09217 26.0594 6.05919C26.1583 6.02622 26.2655 5.97676 26.3809 5.91081C26.7271 5.66349 27.0569 5.50686 27.3702 5.44091L27.5185 5.21833C27.7494 5.05345 28.0379 4.94628 28.3841 4.89682C28.4171 4.81438 28.4831 4.76492 28.582 4.74843C28.6974 4.71546 28.7634 4.69072 28.7798 4.67424C28.9282 4.57531 28.9859 4.52585 28.953 4.52585C28.9859 4.52585 29.0107 4.53409 29.0272 4.55058H29.1014C29.1673 4.55058 29.2662 4.50936 29.3981 4.42692C29.4311 4.39395 29.4476 4.36097 29.4476 4.328C29.6949 4.27853 29.868 4.20434 29.9669 4.10541C30.0988 4.10541 30.2472 4.08068 30.4121 4.03122C30.4781 4.03122 30.5358 4.03946 30.5852 4.05595C30.7006 3.97351 30.7336 3.93229 30.6842 3.93229H30.7089C30.7089 3.94878 30.7254 3.95703 30.7584 3.95703C30.7748 3.95703 30.8161 3.92405 30.882 3.8581C30.9644 3.77566 31.0139 3.7262 31.0304 3.70971H31.3272L31.4014 3.63552C31.6817 3.55308 31.8548 3.51186 31.9207 3.51186C31.9702 3.51186 32.0361 3.55308 32.1186 3.63552C32.1186 3.63552 32.1351 3.66849 32.168 3.73444C32.1845 3.71796 32.2175 3.70147 32.267 3.68498C32.3164 3.65201 32.3824 3.62727 32.4648 3.61079C32.6956 3.47889 32.8935 3.40469 33.0584 3.3882C33.0913 3.3882 33.1243 3.37996 33.1573 3.36347C33.2068 3.3305 33.248 3.31401 33.281 3.31401C33.2974 3.31401 33.3634 3.33874 33.4788 3.3882C33.5942 3.43767 33.6684 3.4624 33.7014 3.4624L33.7756 3.3882C33.858 3.42118 34.0147 3.42118 34.2455 3.3882C34.3609 3.37172 34.4433 3.36347 34.4928 3.36347C34.5587 3.36347 34.5917 3.36347 34.5917 3.36347C34.6082 3.36347 34.6742 3.3882 34.7896 3.43767C34.905 3.47064 34.9792 3.48713 35.0122 3.48713H35.4079C35.4079 3.50362 35.4573 3.56957 35.5562 3.68498C35.6717 3.78391 35.7623 3.84986 35.8283 3.88283H35.8777C35.8777 3.86634 35.8942 3.8581 35.9272 3.8581C35.9437 3.8581 36.0344 3.9323 36.1993 4.08068C36.3641 4.22907 36.4795 4.31975 36.5455 4.35273C36.5785 4.40219 36.6114 4.46814 36.6444 4.55058C36.6774 4.61653 36.7104 4.69897 36.7433 4.79789C36.7598 4.79789 36.8011 4.81438 36.867 4.84736C36.867 4.86384 36.9082 4.95453 36.9907 5.1194C36.9082 5.16886 36.867 5.21833 36.867 5.26779C36.867 5.28428 36.8835 5.31725 36.9165 5.36671C36.9494 5.39969 36.9742 5.43267 36.9907 5.46564L37.139 6.00973C37.1061 6.09217 37.1061 6.19934 37.139 6.33124C37.1555 6.39719 37.1638 6.46314 37.1638 6.52909C37.1803 6.57855 37.1885 6.61977 37.1885 6.65275C37.1885 6.68572 37.172 6.75992 37.139 6.87533C37.1226 6.99074 37.1061 7.14737 37.0896 7.34523C37.0896 7.42766 37.0813 7.52659 37.0649 7.642C37.0649 7.75741 37.0566 7.89756 37.0401 8.06244C37.0071 8.14487 36.9577 8.5076 36.8917 9.15062C36.8258 9.299 36.7846 9.49686 36.7681 9.74417C36.7351 9.76066 36.6856 9.83485 36.6197 9.96675C36.5702 10.0822 36.5455 10.1728 36.5455 10.2388C36.5455 10.4366 36.6114 10.5356 36.7433 10.5356C36.8258 10.5356 36.9165 10.4861 37.0154 10.3872C37.0978 10.5191 37.139 10.585 37.139 10.585C37.1555 10.585 37.2132 10.5768 37.3122 10.5603C37.4276 10.5438 37.5265 10.5356 37.6089 10.5356L37.6831 10.4614C37.6996 10.4614 37.7161 10.4531 37.7326 10.4366H37.881C37.881 10.4531 37.8975 10.4614 37.9305 10.4614C38.0129 10.4614 38.3097 10.0574 38.8208 9.24954C38.9032 9.15062 38.9939 9.0352 39.0928 8.9033C39.2082 8.75491 39.3484 8.59828 39.5133 8.43341C39.5297 8.41692 39.538 8.36746 39.538 8.28502C39.571 8.28502 39.5957 8.29326 39.6122 8.30975C39.7441 8.17785 39.8925 8.00473 40.0574 7.79039C40.2387 7.55956 40.4366 7.30401 40.6509 7.02372L40.7993 6.92479C40.8652 6.84235 40.9394 6.73518 41.0219 6.60328C41.1208 6.47138 41.228 6.323 41.3434 6.15812L42.2337 5.04521C42.3821 4.89682 42.481 4.82262 42.5305 4.82262L42.6294 4.84736C42.6459 4.79789 42.6789 4.73194 42.7283 4.64951C42.7943 4.55058 43.0169 4.31975 43.3961 3.95703C43.4456 3.84161 43.528 3.70971 43.6434 3.56132C43.7918 3.44591 43.9484 3.26455 44.1133 3.01723C44.1463 2.98426 44.1792 2.95128 44.2122 2.91831C44.2617 2.86885 44.3194 2.81114 44.3853 2.74519C44.5008 2.67924 44.6079 2.60504 44.7069 2.52261C44.8058 2.44017 44.8965 2.35773 44.9789 2.27529C45.2427 2.01149 45.3993 1.8631 45.4488 1.83013C45.5147 1.78067 45.5972 1.69823 45.6961 1.58281C45.8115 1.4674 45.9434 1.31901 46.0918 1.13765C46.0918 1.15414 46.1001 1.17062 46.1165 1.18711C46.199 1.15414 46.3309 1.0717 46.5122 0.939798C46.5617 0.890335 46.6359 0.816141 46.7348 0.717216C46.8502 0.618291 47.0481 0.478146 47.3284 0.296782L47.5757 0.173125C47.6087 0.156638 47.6581 0.14015 47.7241 0.123663C47.79 0.107175 47.8807 0.0906867 47.9961 0.0741993C48.0291 0.0741993 48.0538 0.0659556 48.0703 0.0494683C48.1033 0.0164935 48.1363 6.13869e-06 48.1692 6.13869e-06C48.3506 6.13869e-06 48.5072 0.0412251 48.6391 0.123663L48.7628 0.272051H48.8865L48.9854 0.593559C48.9854 0.610046 48.9689 0.651265 48.9359 0.717216C48.9194 0.783166 48.9112 0.840873 48.9112 0.890335H48.8865C48.771 0.890335 48.6721 1.01399 48.5897 1.26131L48.4908 1.18711C48.4248 1.22009 48.3506 1.26955 48.2682 1.3355C48.2022 1.40145 48.1115 1.47564 47.9961 1.55808L47.5015 1.97852C47.4355 2.01149 47.3614 2.05271 47.2789 2.10217C47.1965 2.15164 47.1635 2.21759 47.18 2.30002C47.1305 2.28354 47.0893 2.27529 47.0563 2.27529C47.0398 2.2588 47.0316 2.25056 47.0316 2.25056C46.9986 2.25056 46.8173 2.36597 46.4875 2.5968C46.1907 2.81114 46.0588 2.97601 46.0918 3.09143C45.861 3.27279 45.7373 3.36347 45.7208 3.36347C45.6879 3.36347 45.6714 3.35523 45.6714 3.33874C45.6714 3.32225 45.6631 3.31401 45.6466 3.31401C45.6137 3.31401 45.556 3.38821 45.4735 3.53659C45.3911 3.66849 45.3334 3.75918 45.3004 3.80864C45.2509 3.80864 45.1932 3.77566 45.1273 3.70971C45.0613 3.77566 44.9789 3.8581 44.88 3.95703C44.7975 4.03946 44.6904 4.13839 44.5585 4.2538L44.2122 4.55058V4.37746L44.3111 4.328C44.3441 4.14663 44.4101 4.05595 44.509 4.05595C44.542 4.05595 44.5585 4.0642 44.5585 4.08068H44.5832C44.5832 4.08068 44.6491 4.02298 44.781 3.90756L44.8058 3.78391C44.9542 3.73444 44.9954 3.65201 44.9294 3.53659L45.2262 3.26455V3.21509C45.2262 3.05021 45.3416 2.90182 45.5724 2.76992V2.64626C45.5395 2.61329 45.49 2.5968 45.4241 2.5968C45.457 2.5968 45.4241 2.61329 45.3251 2.64626C45.1767 2.74519 45.0448 2.85236 44.9294 2.96777C44.7646 3.09967 44.5667 3.28103 44.3359 3.51186C44.1051 3.74269 43.833 4.01473 43.5197 4.328C43.4703 4.37746 43.4126 4.44341 43.3466 4.52585C43.2972 4.5918 43.2395 4.68248 43.1735 4.79789C43.124 4.81438 43.0663 4.8556 43.0004 4.92155C42.9344 4.97101 42.852 5.03696 42.7531 5.1194L42.4563 5.56457C42.3244 5.72944 42.1842 5.90256 42.0359 6.08393C41.904 6.2488 41.7638 6.43841 41.6154 6.65275C41.6154 6.63626 41.6072 6.61977 41.5907 6.60328C41.4423 6.7187 41.2774 6.92479 41.0961 7.22157C41.0136 7.28752 40.9229 7.36171 40.824 7.44415C40.7251 7.52659 40.6344 7.63376 40.552 7.76566L39.9832 8.5076C39.9007 8.67248 39.81 8.82086 39.7111 8.95276C39.6122 9.06818 39.5133 9.17535 39.4143 9.27427C39.4143 9.32374 39.4061 9.36495 39.3896 9.39793L39.0186 9.79363C39.0186 9.82661 38.9939 9.88431 38.9444 9.96675C38.895 10.0327 38.8455 10.0987 38.7961 10.1646C38.7466 10.2141 38.6889 10.2553 38.6229 10.2883V10.4119L38.6724 10.4614C38.7054 10.4614 38.7219 10.4449 38.7219 10.4119C38.7219 10.4119 38.7301 10.4202 38.7466 10.4366C38.7796 10.4366 38.829 10.4449 38.895 10.4614C38.9115 10.4449 38.9692 10.4366 39.0681 10.4366L39.167 10.5356L39.2659 10.4614C39.3154 10.5108 39.3566 10.5356 39.3896 10.5356C39.4226 10.5356 39.4391 10.5273 39.4391 10.5108C39.4391 10.4944 39.4473 10.4861 39.4638 10.4861H39.4885H39.4638L39.8595 10.5603C39.876 10.5603 39.9007 10.585 39.9337 10.6345C39.9832 10.6675 40.0161 10.684 40.0326 10.684C40.0656 10.684 40.0821 10.6757 40.0821 10.6592H40.1068C40.1728 10.6592 40.2387 10.6757 40.3047 10.7087C40.3706 10.7417 40.4943 10.8323 40.6756 10.9807C40.7581 10.9313 40.8735 10.9065 41.0219 10.9065C41.0384 10.9065 41.2445 10.9972 41.6402 11.1786L41.7885 11.4754C41.8875 11.4754 41.9617 11.5001 42.0111 11.5496V11.7474H41.9122C41.8792 11.7639 41.8298 11.7392 41.7638 11.6732C41.6979 11.5908 41.6566 11.5413 41.6402 11.5248L40.4531 10.9313C39.3154 10.7829 38.8538 10.7087 39.0681 10.7087C38.9032 10.7087 38.7961 10.7169 38.7466 10.7334C38.7796 10.7664 38.7631 10.7829 38.6971 10.7829C38.6641 10.7829 38.6147 10.7746 38.5487 10.7582C38.4993 10.7252 38.4663 10.7087 38.4498 10.7087C38.4663 10.7087 38.4333 10.7252 38.3509 10.7582C38.3344 10.8076 38.3014 10.8736 38.252 10.956C38.219 11.022 38.1695 11.0962 38.1036 11.1786C38.0871 11.1951 38.0624 11.2198 38.0294 11.2528C37.9964 11.2858 37.9469 11.3187 37.881 11.3517L37.7326 11.6732C37.4193 11.97 36.9989 12.5141 36.4713 13.3055C36.3559 13.4869 36.191 13.6929 35.9767 13.9238C35.7788 14.1381 35.7046 14.2865 35.7541 14.3689C35.7376 14.3689 35.7129 14.3524 35.6799 14.3195C35.6304 14.3689 35.581 14.4184 35.5315 14.4679C35.4985 14.5008 35.4326 14.5998 35.3337 14.7646C35.3172 14.7811 35.2924 14.7976 35.2595 14.8141C35.243 14.8306 35.21 14.8553 35.1605 14.8883C35.1605 14.9378 35.1523 14.979 35.1358 15.012C34.9709 15.2593 34.6742 15.6302 34.2455 16.1249C34.1301 16.3227 33.9487 16.6112 33.7014 16.9905L32.7863 18.1281C32.7369 18.1446 32.6627 18.2188 32.5637 18.3507C32.5473 18.4661 32.5143 18.5321 32.4648 18.5485C32.4154 18.5815 32.3329 18.6969 32.2175 18.8948C32.1351 18.8948 32.0774 18.9607 32.0444 19.0926C31.9455 19.1421 31.8713 19.241 31.8218 19.3894L31.2282 19.983C31.2118 20.0324 31.1623 20.0984 31.0799 20.1808C31.0139 20.2632 30.8985 20.4034 30.7336 20.6012C30.7171 20.6177 30.7089 20.659 30.7089 20.7249C30.6924 20.6919 30.6677 20.6919 30.6347 20.7249L30.239 21.1206C30.2225 21.1866 30.173 21.269 30.0906 21.3679C30.0741 21.3844 30.0164 21.4091 29.9175 21.4421C29.8021 21.541 29.7279 21.64 29.6949 21.7389C29.5465 21.8873 29.258 22.1263 28.8293 22.4561C28.8128 22.5056 28.6644 22.6704 28.3841 22.9507C28.3677 22.9672 28.3512 22.9755 28.3347 22.9755C28.3182 22.9755 28.2935 22.9837 28.2605 23.0002C28.0626 23.1156 27.8236 23.3217 27.5433 23.6185L27.4443 23.5937C27.4608 23.5937 27.3949 23.6597 27.2465 23.7916C27.1146 23.9235 26.9332 24.0307 26.7024 24.1131L26.4056 24.2368C26.3562 24.2697 26.2902 24.3357 26.2078 24.4346C26.1253 24.55 26.0676 24.6077 26.0347 24.6077C25.8863 24.6077 25.7296 24.6654 25.5648 24.7808L25.4658 24.954C24.9217 25.2013 24.625 25.3249 24.5755 25.3249H24.526C24.526 25.3085 24.5096 25.3002 24.4766 25.3002C24.4601 25.3002 24.3941 25.3332 24.2787 25.3991C24.1798 25.4816 24.1139 25.5228 24.0809 25.5228H24.0561C24.0561 25.5063 24.0397 25.4981 24.0067 25.4981C23.9242 25.5475 23.8253 25.5805 23.7099 25.597C23.611 25.63 23.5203 25.6629 23.4379 25.6959ZM37.1885 6.65275V6.70221C37.1885 6.70221 37.1885 6.68572 37.1885 6.65275ZM21.1131 24.9292C21.5088 24.9292 21.9705 24.8715 22.4981 24.7561C22.597 24.7396 22.7866 24.6737 23.0669 24.5583C23.3472 24.4593 23.4873 24.4099 23.4873 24.4099C23.5038 24.4099 23.5121 24.4181 23.5121 24.4346C23.5285 24.4511 23.5533 24.4593 23.5863 24.4593C23.7017 24.3769 23.8501 24.278 24.0314 24.1626C24.2128 24.0636 24.3612 23.9812 24.4766 23.9152H24.526C24.5425 23.9317 24.559 23.94 24.5755 23.94C24.6579 23.94 25.0866 23.7009 25.8615 23.2228C26.0429 23.1074 26.2078 23.0002 26.3562 22.9013C26.521 22.8023 26.6694 22.6952 26.8013 22.5798C26.9497 22.4808 27.1311 22.3489 27.3454 22.1841C27.5762 22.0192 27.84 21.8213 28.1368 21.5905C28.3017 21.4586 28.4254 21.3185 28.5078 21.1701C28.5573 21.2195 28.5737 21.2443 28.5573 21.2443C28.5902 21.2443 28.6067 21.2278 28.6067 21.1948C28.6067 21.1783 28.6232 21.1701 28.6562 21.1701C28.6892 21.1701 28.7056 21.1783 28.7056 21.1948C28.7056 21.2278 28.7221 21.2443 28.7551 21.2443C28.7716 21.2443 28.8211 21.1866 28.9035 21.0711C29.0024 20.9557 29.0684 20.9063 29.1014 20.9228L29.225 20.9475C29.225 20.865 29.2662 20.7826 29.3487 20.7002L29.596 20.4776C29.6619 20.3622 29.7114 20.288 29.7444 20.255C29.7773 20.2385 29.8103 20.2055 29.8433 20.1561L30.5852 19.4389C30.6512 19.307 30.7336 19.1833 30.8325 19.0679C30.9315 19.0349 31.0057 19.0019 31.0551 18.969C31.187 18.7876 31.3519 18.565 31.5498 18.3012C31.7641 18.0539 32.0114 17.7654 32.2917 17.4356C32.3412 17.4191 32.3906 17.3944 32.4401 17.3614C32.506 17.3285 32.572 17.2378 32.6379 17.0894C32.6874 17.0399 32.7534 16.9575 32.8358 16.8421C32.9347 16.7431 32.9924 16.636 33.0089 16.5206C33.0254 16.5371 33.0501 16.5453 33.0831 16.5453L33.4541 16.0259C33.6025 15.894 33.7921 15.7044 34.0229 15.4571C34.0394 15.4571 34.0806 15.3829 34.1466 15.2345C34.2125 15.2016 34.2785 15.1521 34.3444 15.0861C34.4268 14.9542 34.501 14.8471 34.567 14.7646C34.6329 14.6822 34.6989 14.6163 34.7648 14.5668L35.1853 13.8743C35.4326 13.6765 35.7623 13.3714 36.1745 12.9592C36.2075 12.8933 36.2405 12.8191 36.2735 12.7367C36.3229 12.6377 36.3724 12.5306 36.4218 12.4152C36.4878 12.3657 36.562 12.2915 36.6444 12.1926C36.7433 12.0937 36.8258 12.0112 36.8917 11.9453L37.1143 11.5001C37.2132 11.4506 37.4028 11.2363 37.6831 10.8571V10.7087C37.6831 10.7087 37.6667 10.7252 37.6337 10.7582C37.6007 10.7746 37.5677 10.7829 37.5348 10.7829C37.5018 10.7829 37.4111 10.7664 37.2627 10.7334C37.1143 10.7004 37.0236 10.684 36.9907 10.684C36.7269 10.684 36.529 10.7417 36.3971 10.8571C36.2817 10.9725 36.2157 11.1786 36.1993 11.4754C36.1663 11.4754 36.1333 11.5413 36.1003 11.6732C35.82 12.1184 35.6552 12.3575 35.6057 12.3904H35.581C35.581 12.3739 35.5727 12.3657 35.5562 12.3657C35.5068 12.3657 35.4408 12.5388 35.3584 12.8851C35.2924 12.9015 35.243 12.9675 35.21 13.0829C35.177 13.1818 35.1276 13.2478 35.0616 13.2808C35.0286 13.3962 34.9462 13.5116 34.8143 13.627C34.8143 13.6929 34.8061 13.7424 34.7896 13.7754C34.7071 13.7919 34.6577 13.8331 34.6412 13.899C34.6247 13.965 34.5917 14.0227 34.5423 14.0722L34.4186 14.0969C34.3362 14.1299 34.2949 14.0969 34.2949 13.998C34.2949 13.965 34.3609 13.8496 34.4928 13.6517C34.6247 13.4539 34.7071 13.3137 34.7401 13.2313C34.7896 13.1653 34.839 13.0994 34.8885 13.0334C34.9544 12.951 35.0204 12.8521 35.0863 12.7367C35.1193 12.6377 35.1605 12.5306 35.21 12.4152C35.276 12.2833 35.3419 12.1514 35.4079 12.0195C35.4408 11.9205 35.482 11.7969 35.5315 11.6485C35.581 11.5001 35.6304 11.3187 35.6799 11.1044C35.7294 11.022 35.7541 10.9725 35.7541 10.956C35.7541 10.923 35.7376 10.8901 35.7046 10.8571C35.5892 10.8901 35.4491 10.9313 35.2842 10.9807C35.1358 11.0137 34.9709 11.0467 34.7896 11.0797H34.6906C34.6742 11.0797 34.6494 11.0879 34.6164 11.1044C34.5835 11.1209 34.5587 11.1291 34.5423 11.1291C34.5093 11.1291 34.501 11.1209 34.5175 11.1044C34.534 11.0879 34.534 11.0797 34.5175 11.0797C34.4845 11.0797 34.3939 11.0962 34.2455 11.1291C34.1136 11.1621 34.0311 11.1786 33.9982 11.1786C33.9817 11.2445 33.9569 11.2775 33.924 11.2775C33.891 11.2775 33.8663 11.2693 33.8498 11.2528C33.8333 11.2363 33.8086 11.2281 33.7756 11.2281C33.7591 11.294 33.7426 11.3517 33.7261 11.4012C33.7096 11.4341 33.6849 11.4671 33.6519 11.5001C33.4541 11.4506 33.3716 11.4259 33.4046 11.4259C33.3716 11.4259 33.3057 11.4506 33.2068 11.5001C33.1243 11.5496 33.0666 11.5743 33.0336 11.5743C32.9842 11.5743 32.9347 11.566 32.8853 11.5496H32.6627L32.539 11.7227C32.4731 11.7062 32.3412 11.6979 32.1433 11.6979C31.6652 11.7309 31.4426 11.8381 31.4756 12.0195H31.0551C31.0222 12.0359 30.9892 12.0607 30.9562 12.0937C30.9397 12.1266 30.915 12.1431 30.882 12.1431C30.8655 12.1431 30.849 12.1349 30.8325 12.1184H30.7831C30.7336 12.1184 30.511 12.2008 30.1153 12.3657C30.0988 12.3987 30.0576 12.4481 29.9917 12.5141H29.8186C29.7856 12.4976 29.7444 12.4894 29.6949 12.4894V12.5388C29.6949 12.6707 29.6372 12.7367 29.5218 12.7367C29.4558 12.7367 29.3981 12.7037 29.3487 12.6377C29.2992 12.6707 29.2415 12.7367 29.1755 12.8356C29.1261 12.918 29.0849 12.9592 29.0519 12.9592C29.0189 12.9592 28.9942 12.951 28.9777 12.9345C28.9612 12.918 28.9365 12.9098 28.9035 12.9098C28.9035 12.9098 28.8705 12.9345 28.8046 12.984C28.7551 13.017 28.6727 13.0747 28.5573 13.1571C28.5573 13.1901 28.549 13.2313 28.5325 13.2808C28.5325 13.3137 28.5243 13.355 28.5078 13.4044H28.3841C28.3841 13.3879 28.3677 13.3797 28.3347 13.3797C28.1368 13.3797 27.906 13.4621 27.6422 13.627L27.5433 13.7754C27.5268 13.7754 27.4773 13.8001 27.3949 13.8496C27.3784 13.9155 27.3454 13.9485 27.296 13.9485C27.263 13.9485 27.23 13.9403 27.197 13.9238H27.0734C27.0734 13.9238 27.0239 13.9403 26.925 13.9732C26.8261 14.1216 26.7271 14.2123 26.6282 14.2453C26.5293 14.2783 26.4139 14.3195 26.282 14.3689C25.9028 14.6822 25.6225 14.8388 25.4411 14.8388C25.4081 14.8388 25.3916 14.8306 25.3916 14.8141H25.3669C25.1196 15.0614 24.9795 15.1851 24.9465 15.1851C24.9795 15.2675 24.9795 15.3087 24.9465 15.3087H24.8723C24.8558 15.2922 24.8228 15.284 24.7734 15.284C24.6909 15.284 24.6332 15.3335 24.6002 15.4324C24.5838 15.5148 24.559 15.556 24.526 15.556H24.4766C24.4931 15.5396 24.4848 15.5313 24.4519 15.5313C24.4189 15.5313 24.3447 15.6137 24.2293 15.7786C24.1303 15.7786 24.0561 15.7869 24.0067 15.8034L23.9078 15.9765C23.7923 16.0424 23.6934 16.1084 23.611 16.1743C23.5285 16.2568 23.4461 16.331 23.3637 16.3969L23.2647 16.3227C23.2647 16.4381 23.2153 16.4958 23.1164 16.4958C23.0999 16.4958 23.0916 16.4876 23.0916 16.4711C23.0916 16.4546 23.0834 16.4464 23.0669 16.4464C23.0504 16.4464 22.9762 16.5206 22.8443 16.669C22.8113 16.7019 22.7784 16.7431 22.7454 16.7926C22.7289 16.8421 22.7042 16.8833 22.6712 16.9163C22.5558 16.9328 22.4733 16.9657 22.4239 17.0152C22.259 17.2295 21.954 17.5346 21.5088 17.9303L21.3604 18.2765C21.2945 18.326 21.2285 18.3919 21.1626 18.4743C21.1131 18.5568 21.0472 18.6557 20.9647 18.7711C20.9153 18.7711 20.8658 18.7794 20.8163 18.7959C20.6844 18.9607 20.5938 19.0514 20.5443 19.0679C20.5443 19.1833 20.5113 19.2658 20.4454 19.3152C20.3794 19.3647 20.3052 19.4224 20.2228 19.4883C20.1568 19.6202 20.0167 19.8346 19.8024 20.1313C19.7694 20.1478 19.7034 20.2055 19.6045 20.3045L19.5056 20.7496L19.1099 21.2443C19.1099 21.2607 19.1099 21.2855 19.1099 21.3185C19.1099 21.3679 19.1181 21.4339 19.1346 21.5163C19.1511 21.5163 19.0934 21.5905 18.9615 21.7389L18.8873 22.0109C18.7719 22.1758 18.7142 22.2335 18.7142 22.1841C18.7142 22.217 18.7307 22.2582 18.7636 22.3077C18.7801 22.3572 18.7884 22.3901 18.7884 22.4066L18.6647 22.9507C18.6647 23.1321 18.6894 23.3135 18.7389 23.4948C18.7884 23.5443 18.8213 23.5937 18.8378 23.6432C18.9203 23.907 19.0934 24.1296 19.3572 24.311C19.4066 24.3274 19.4396 24.3687 19.4561 24.4346C19.588 24.4511 19.7446 24.55 19.926 24.7314C20.0744 24.7314 20.2805 24.7561 20.5443 24.8056C20.7916 24.8715 20.94 24.9045 20.9895 24.9045H21.0637C21.0801 24.921 21.0966 24.9292 21.1131 24.9292ZM50.3286 19.1421C50.3121 19.1421 50.2544 19.1174 50.1555 19.0679C50.073 19.0349 50.0236 19.0184 50.0071 19.0184C49.9906 19.0184 49.9824 19.0267 49.9824 19.0432C49.9824 19.0761 49.9741 19.0926 49.9576 19.0926L49.9082 19.0432L49.8587 19.1174C49.7433 19.0514 49.6856 19.0102 49.6856 18.9937C49.6526 19.0102 49.6279 19.0184 49.6114 19.0184C49.5949 19.0019 49.5867 18.9607 49.5867 18.8948L49.3888 18.8453C49.3723 18.8453 49.3558 18.8536 49.3393 18.87C49.3229 18.903 49.3064 18.9195 49.2899 18.9195C49.2404 18.9195 49.191 18.8948 49.1415 18.8453C49.092 18.8453 49.0673 18.8783 49.0673 18.9442H48.9436C48.9272 18.9442 48.8694 18.9113 48.7705 18.8453C48.6716 18.7959 48.6056 18.7711 48.5727 18.7711C48.5562 18.7711 48.515 18.7794 48.449 18.7959C48.3996 18.8288 48.3666 18.8453 48.3501 18.8453H48.078C47.9461 18.7134 47.8555 18.6475 47.806 18.6475L47.7318 18.7217C47.6988 18.6887 47.6576 18.6722 47.6081 18.6722H47.435C47.3856 18.6392 47.2784 18.5815 47.1135 18.4991C46.9486 18.4166 46.8167 18.3589 46.7178 18.326C46.6848 18.326 46.6684 18.3424 46.6684 18.3754C46.421 18.1116 46.2479 17.9797 46.149 17.9797H46.1243C46.1243 17.9962 46.116 18.0044 46.0995 18.0044C46.083 18.0044 46.0583 17.988 46.0253 17.955L45.9511 18.0044C45.9347 17.922 45.8934 17.8725 45.8275 17.8561C45.778 17.8396 45.6956 17.8066 45.5802 17.7571C45.5637 17.7571 45.539 17.7324 45.506 17.6829C45.4895 17.65 45.473 17.6335 45.4565 17.6335C45.44 17.6335 45.4235 17.6417 45.4071 17.6582C45.4071 17.6747 45.3988 17.6829 45.3823 17.6829L45.1845 17.5346V17.4604C45.0196 17.4109 44.9289 17.3697 44.9124 17.3367C44.8959 17.3532 44.8795 17.3614 44.863 17.3614C44.8465 17.2625 44.8053 17.213 44.7393 17.213C44.7063 17.213 44.6816 17.2213 44.6651 17.2378C44.5992 17.1224 44.5415 17.0647 44.492 17.0647V16.9905L44.1952 16.8668C44.0963 16.6854 44.0139 16.5948 43.9479 16.5948H43.8984C43.882 16.6112 43.8572 16.6195 43.8242 16.6195L43.6017 16.3969C43.5687 16.3804 43.5027 16.3227 43.4038 16.2238V16.1249C43.3708 16.0919 43.3296 16.0754 43.2802 16.0754C43.3131 16.0424 43.1895 15.9023 42.9092 15.655C42.8927 15.6055 42.868 15.5396 42.835 15.4571C42.802 15.3582 42.769 15.251 42.7361 15.1356C42.7196 15.1356 42.7031 15.1439 42.6866 15.1603C42.6042 15.0779 42.4228 15.0284 42.1425 15.012C42.1425 14.9625 42.1343 14.9295 42.1178 14.913C42.0683 14.946 42.0436 14.9707 42.0436 14.9872C42.0271 14.9707 42.0024 14.9542 41.9694 14.9378C41.9364 14.9213 41.887 14.9048 41.821 14.8883L41.5242 14.7894C41.5077 14.7729 41.4583 14.7482 41.3758 14.7152C41.3099 14.6657 41.211 14.5998 41.0791 14.5173L40.8812 14.27L40.8317 14.3195L40.6834 14.2205V14.1464C40.4525 13.9485 40.3041 13.7424 40.2382 13.5281C40.2712 13.4456 40.2712 13.2395 40.2382 12.9098L40.5597 12.4399C40.6916 12.4399 40.7576 12.4729 40.7576 12.5388C40.7576 12.6213 40.7081 12.6954 40.6092 12.7614C40.5267 12.8273 40.4773 12.8851 40.4608 12.9345C40.5102 12.984 40.5597 13.0087 40.6092 13.0087C40.5927 13.0417 40.5844 13.0829 40.5844 13.1324C40.5844 13.2313 40.6339 13.3302 40.7328 13.4291C40.7493 13.4456 40.7823 13.4539 40.8317 13.4539C40.8317 13.4539 40.84 13.4539 40.8565 13.4539C40.8895 13.4539 40.9224 13.4456 40.9554 13.4291H41.1533V13.6023C41.2522 13.7671 41.3264 13.8496 41.3758 13.8496C41.3923 13.8496 41.4006 13.8413 41.4006 13.8248C41.3841 13.8084 41.3841 13.8001 41.4006 13.8001C41.4665 13.8001 41.5325 13.8166 41.5984 13.8496C41.6809 13.998 41.7633 14.0722 41.8457 14.0722C41.7963 14.0722 41.8375 14.0557 41.9694 14.0227L42.093 14.1711C42.192 14.1216 42.2414 14.0722 42.2414 14.0227C42.2414 14.0062 42.225 13.965 42.192 13.899C42.1755 13.8331 42.159 13.7919 42.1425 13.7754V13.6765C42.1425 13.5775 42.1013 13.4291 42.0189 13.2313V12.7367L42.093 12.5635C42.0766 12.5471 42.0683 12.5223 42.0683 12.4894L42.1425 12.1678C42.2744 12.0359 42.2991 11.9123 42.2167 11.7969C42.2332 11.7804 42.3156 11.7227 42.464 11.6238C42.4805 11.6238 42.5135 11.6485 42.5629 11.6979L42.4146 12.1431C42.3981 12.1431 42.3733 12.1596 42.3404 12.1926C42.3733 12.2915 42.3816 12.3904 42.3651 12.4894L42.3156 12.7861L42.3651 13.3302C42.3651 13.3467 42.3816 13.355 42.4146 13.355C42.3981 13.3879 42.3898 13.4209 42.3898 13.4539C42.3898 13.4704 42.3898 13.4786 42.3898 13.4786L42.5135 14.0722L42.5629 14.1216C42.5959 14.2535 42.6619 14.3854 42.7608 14.5173C42.7938 14.5008 42.8185 14.4926 42.835 14.4926C42.8515 14.4761 42.8597 14.4679 42.8597 14.4679L42.9834 14.4926C42.9834 14.5091 42.9916 14.5256 43.0081 14.5421H43.107L43.1565 14.5915C43.1895 14.575 43.2224 14.5338 43.2554 14.4679C43.4203 14.5173 43.5275 14.608 43.5769 14.7399C43.7583 14.7399 43.8737 14.7317 43.9232 14.7152C43.9726 14.7482 44.0056 14.8059 44.0221 14.8883C44.088 14.8553 44.121 14.8388 44.121 14.8388C44.154 14.8388 44.187 14.8471 44.2199 14.8636C44.2694 14.8801 44.3024 14.8883 44.3189 14.8883C44.3024 14.8883 44.3271 14.8636 44.3931 14.8141H44.5662C44.5992 14.8965 44.6486 14.9378 44.7146 14.9378C44.7476 14.9378 44.7888 14.9295 44.8382 14.913C44.8877 14.8801 44.9207 14.8636 44.9372 14.8636C44.9701 14.8636 45.0114 14.8883 45.0608 14.9378C45.1103 14.9872 45.1433 15.012 45.1597 15.012L45.2587 14.9872C45.2587 15.0202 45.2752 15.0532 45.3081 15.0861C45.3081 15.0861 45.3988 15.0697 45.5802 15.0367C45.5967 15.0202 45.6214 15.0037 45.6544 14.9872C45.6873 14.9542 45.7203 14.9378 45.7533 14.9378C45.9676 15.0532 46.116 15.1109 46.1985 15.1109C46.2314 15.1109 46.2644 15.0944 46.2974 15.0614V15.1356C46.4128 15.0697 46.4705 15.0367 46.4705 15.0367L46.792 15.1356C46.858 15.1356 46.9486 15.0779 47.0641 14.9625C47.1135 15.012 47.163 15.0367 47.2124 15.0367C47.2289 15.0367 47.2372 15.0284 47.2372 15.012H47.2619C47.2784 15.012 47.2949 15.0284 47.3114 15.0614C47.3443 15.0779 47.3691 15.0861 47.3856 15.0861C47.4021 15.0861 47.4268 15.0861 47.4598 15.0861C47.4927 15.0861 47.5422 15.0779 47.6081 15.0614H47.806C47.9049 15.0614 47.9956 15.0202 48.078 14.9378C48.1275 15.0532 48.177 15.1109 48.2264 15.1109H48.82C48.8035 15.1274 48.8282 15.1356 48.8942 15.1356C48.9107 15.1356 48.9354 15.1274 48.9684 15.1109C49.0013 15.0944 49.0261 15.0861 49.0426 15.0861C49.0755 15.0861 49.092 15.0944 49.092 15.1109C49.1085 15.1274 49.125 15.1356 49.1415 15.1356C49.158 15.1356 49.2074 15.1274 49.2899 15.1109C49.3723 15.0779 49.4383 15.0614 49.4877 15.0614C49.5042 15.0614 49.5125 15.0697 49.5125 15.0861C49.529 15.1026 49.5454 15.1109 49.5619 15.1109C49.5784 15.1109 49.6031 15.1026 49.6361 15.0861C49.6856 15.0532 49.7186 15.0367 49.735 15.0367C49.7515 15.0367 49.8092 15.0532 49.9082 15.0861L49.9576 15.0367C49.9741 15.0532 50.0401 15.0614 50.1555 15.0614C50.172 15.0614 50.1802 15.0532 50.1802 15.0367C50.1967 15.0202 50.2214 15.012 50.2544 15.012C50.2709 15.012 50.2956 15.0202 50.3286 15.0367C50.3781 15.0532 50.4193 15.0614 50.4523 15.0614L50.6748 15.012C50.7573 15.012 50.8067 15.0037 50.8232 14.9872L50.8727 15.0367C50.9057 14.9872 50.9469 14.9625 50.9963 14.9625C51.0128 14.9625 51.0211 14.9707 51.0211 14.9872C51.0211 15.0037 51.0376 15.012 51.0705 15.012C51.087 15.012 51.087 15.0037 51.0705 14.9872C51.0705 14.9707 51.1035 14.9542 51.1695 14.9378H51.2437C51.2601 14.9378 51.2931 14.9378 51.3426 14.9378C51.392 14.9213 51.458 14.913 51.5404 14.913H51.8125C51.829 14.913 51.8372 14.9048 51.8372 14.8883C51.8537 14.8553 51.8702 14.8388 51.8867 14.8388H51.9856C52.0186 14.8553 52.0516 14.8636 52.0845 14.8636L52.1835 14.7894C52.3154 14.7729 52.406 14.7646 52.4555 14.7646C52.5214 14.7482 52.5462 14.7399 52.5297 14.7399C52.7605 14.674 52.9254 14.6245 53.0243 14.5915C53.1397 14.5585 53.1892 14.5421 53.1727 14.5421C53.1727 14.5585 53.2057 14.575 53.2716 14.5915C53.2881 14.575 53.2964 14.5338 53.2964 14.4679C53.2964 14.4019 53.3623 14.3689 53.4942 14.3689C53.5272 14.3689 53.5767 14.3854 53.6426 14.4184C53.6426 14.4349 53.6591 14.4926 53.6921 14.5915C53.6261 14.7069 53.5107 14.7646 53.3458 14.7646C53.3293 14.7646 53.3129 14.7564 53.2964 14.7399H53.2716C53.2387 14.7399 53.1645 14.7729 53.0491 14.8388C52.9501 14.9048 52.8924 14.9378 52.8759 14.9378C52.8265 14.9378 52.7852 14.9625 52.7523 15.012L52.6781 14.9625C52.4802 14.9625 52.2329 15.0037 51.9361 15.0861C51.7878 15.1356 51.7383 15.1603 51.7878 15.1603C51.7383 15.1603 51.6888 15.1521 51.6394 15.1356H51.5157C51.4992 15.1356 51.4827 15.1439 51.4662 15.1603C51.4662 15.1768 51.4498 15.1851 51.4168 15.1851C51.4003 15.1851 51.392 15.1768 51.392 15.1603H51.3673C51.3179 15.1603 51.2931 15.1851 51.2931 15.2345C51.2601 15.2016 51.2272 15.1851 51.1942 15.1851L50.8974 15.2593C50.8644 15.2593 50.848 15.251 50.848 15.2345L50.8232 15.2098C50.8067 15.2098 50.7738 15.2263 50.7243 15.2593C50.6913 15.2758 50.6666 15.284 50.6501 15.284H50.6006C50.6006 15.2675 50.5924 15.2593 50.5759 15.2593C50.5264 15.2593 50.4687 15.2675 50.4028 15.284C50.3368 15.3005 50.2462 15.3499 50.1307 15.4324C50.0813 15.3829 50.0483 15.3582 50.0318 15.3582C49.9824 15.3582 49.9247 15.3747 49.8587 15.4077C49.8092 15.4406 49.7763 15.4571 49.7598 15.4571H49.6609C49.6279 15.4406 49.5949 15.4324 49.5619 15.4324C49.5454 15.4324 49.5207 15.4406 49.4877 15.4571C49.4548 15.4736 49.43 15.4818 49.4135 15.4818C49.3971 15.4818 49.3806 15.4736 49.3641 15.4571C49.3476 15.4406 49.3229 15.4324 49.2899 15.4324C49.2734 15.4324 49.2569 15.4406 49.2404 15.4571C49.2239 15.4736 49.2074 15.4818 49.191 15.4818C49.1745 15.4818 49.158 15.4736 49.1415 15.4571C49.125 15.4406 49.1003 15.4324 49.0673 15.4324C49.0178 15.4324 48.9684 15.4489 48.9189 15.4818C48.8859 15.4983 48.8694 15.5066 48.8694 15.5066H48.8447C48.7788 15.5066 48.7293 15.4654 48.6963 15.3829C48.5644 15.4159 48.4737 15.4489 48.4243 15.4818C48.4408 15.4983 48.4408 15.5066 48.4243 15.5066C48.3913 15.5066 48.3913 15.4983 48.4243 15.4818C48.4078 15.4654 48.3913 15.4489 48.3748 15.4324C48.3583 15.4818 48.3254 15.5066 48.2759 15.5066C48.2594 15.5066 48.2429 15.5066 48.2264 15.5066C48.2099 15.4901 48.1852 15.4736 48.1522 15.4571C48.1357 15.4736 48.1275 15.5313 48.1275 15.6302C48.0451 15.5478 47.9709 15.5066 47.9049 15.5066C47.9379 15.5066 47.9132 15.5231 47.8307 15.556C47.7813 15.4901 47.74 15.4571 47.7071 15.4571H47.5587L47.4845 15.5066L47.2372 15.4571C47.1877 15.4571 47.163 15.4736 47.163 15.5066L47.0888 15.4571C47.0558 15.4901 47.0228 15.5066 46.9899 15.5066C46.9899 15.5066 46.9322 15.4736 46.8167 15.4077C46.7673 15.4571 46.7425 15.5066 46.7425 15.556H46.6684L46.6189 15.5066C46.6024 15.5231 46.5942 15.5478 46.5942 15.5808L46.5447 15.5066C46.5282 15.5066 46.52 15.5148 46.52 15.5313C46.52 15.4983 46.487 15.4818 46.421 15.4818C46.3881 15.4818 46.3633 15.4901 46.3468 15.5066C46.3468 15.4901 46.3139 15.4571 46.2479 15.4077L46.1737 15.4571C46.1408 15.4571 46.1243 15.4736 46.1243 15.5066C45.9924 15.4241 45.9099 15.3829 45.877 15.3829C45.8934 15.3829 45.8605 15.3994 45.778 15.4324C45.7286 15.3829 45.6709 15.3582 45.6049 15.3582C45.5884 15.3582 45.5472 15.3829 45.4812 15.4324C45.4318 15.4654 45.3906 15.4818 45.3576 15.4818C45.2752 15.4818 45.201 15.4654 45.135 15.4324C45.0855 15.3994 45.0526 15.3829 45.0361 15.3829C45.0691 15.3829 45.0278 15.3994 44.9124 15.4324C44.9454 15.3994 44.9454 15.3747 44.9124 15.3582C44.8959 15.3582 44.8877 15.3747 44.8877 15.4077H44.7888L44.7146 15.3087L44.492 15.3829L44.0963 15.2593C43.6017 15.2593 43.3379 15.2675 43.3049 15.284C43.3543 15.3499 43.4285 15.4241 43.5275 15.5066V15.5808C43.5934 15.6137 43.6594 15.6632 43.7253 15.7292C43.7913 15.7951 43.8655 15.8693 43.9479 15.9517C43.9974 16.0507 44.1128 16.1414 44.2941 16.2238C44.3271 16.2403 44.3766 16.2485 44.4425 16.2485C44.4755 16.2485 44.5002 16.2403 44.5167 16.2238H44.6404V16.2733C44.6404 16.3227 44.6734 16.3722 44.7393 16.4216C44.8217 16.4876 44.863 16.5371 44.863 16.57C44.863 16.603 44.8547 16.6277 44.8382 16.6442C45.0691 16.7431 45.1762 16.7926 45.1597 16.7926C45.1762 16.7926 45.201 16.7761 45.2339 16.7431C45.2834 16.7267 45.3164 16.7184 45.3329 16.7184C45.3823 16.7184 45.4318 16.7844 45.4812 16.9163L45.5554 16.8421H45.6296C45.6296 16.8751 45.6214 16.8998 45.6049 16.9163C45.6544 16.9328 45.6956 16.941 45.7286 16.941C45.7615 16.941 45.877 16.9822 46.0748 17.0647C46.0913 17.0647 46.116 17.0482 46.149 17.0152C46.182 17.0811 46.2149 17.1389 46.2479 17.1883C46.2809 17.2543 46.3304 17.2872 46.3963 17.2872H46.4458C46.4458 17.2708 46.4623 17.2625 46.4952 17.2625C46.5117 17.2625 46.5117 17.2708 46.4952 17.2872C46.4952 17.3037 46.5035 17.312 46.52 17.312C46.5365 17.312 46.5529 17.2955 46.5694 17.2625C46.5859 17.246 46.6024 17.2378 46.6189 17.2378C46.6519 17.2378 46.6931 17.2543 46.7425 17.2872C46.792 17.3367 46.825 17.3779 46.8415 17.4109C46.8744 17.3614 46.8992 17.3367 46.9157 17.3367C46.9322 17.3367 46.9734 17.3532 47.0393 17.3862C47.1218 17.4191 47.1795 17.4356 47.2124 17.4356C47.2784 17.4356 47.3443 17.4109 47.4103 17.3614C47.4762 17.4604 47.5669 17.5428 47.6823 17.6087L47.7318 17.6582C47.7153 17.6747 47.7071 17.7324 47.7071 17.8313L47.8307 17.7819L47.8555 17.8808C47.8555 17.9632 47.8225 18.0044 47.7565 18.0044H47.7071C47.7071 18.0374 47.7236 18.0539 47.7565 18.0539C47.773 18.0539 47.7978 18.0539 47.8307 18.0539C47.8637 18.0539 47.8967 18.0457 47.9297 18.0292H48.1028C48.1357 18.0292 48.1522 17.988 48.1522 17.9055H48.3748C48.3913 17.9055 48.4078 17.889 48.4243 17.8561C48.4573 17.8396 48.482 17.8313 48.4985 17.8313L48.7211 17.9055L48.82 17.7077C48.8859 17.7406 48.9519 17.7571 49.0178 17.7571C49.1003 17.7571 49.2322 17.7819 49.4135 17.8313L49.463 17.9055V17.8313C49.5125 17.8148 49.6279 17.8066 49.8092 17.8066C49.7763 17.8066 49.8587 17.8561 50.0566 17.955C50.1555 17.9055 50.1967 17.8725 50.1802 17.8561H50.1555C50.172 17.8561 50.1802 17.8561 50.1802 17.8561C50.1967 17.8725 50.2132 17.8808 50.2297 17.8808C50.2462 17.8973 50.2626 17.9055 50.2791 17.9055C50.3451 17.8396 50.3698 17.8066 50.3533 17.8066C50.3698 17.8066 50.3863 17.8066 50.4028 17.8066C50.4193 17.8231 50.444 17.8396 50.477 17.8561C50.477 17.8725 50.4852 17.8973 50.5017 17.9303C50.5347 17.8973 50.5759 17.8808 50.6254 17.8808C50.6419 17.8808 50.6419 17.8478 50.6254 17.7819C50.6584 17.7819 50.6996 17.7654 50.749 17.7324C50.7985 17.7159 50.8315 17.7077 50.848 17.7077C50.8644 17.7077 50.9386 17.7406 51.0705 17.8066C51.2024 17.8725 51.2766 17.9055 51.2931 17.9055H51.3179C51.3838 17.8396 51.4168 17.7901 51.4168 17.7571C51.4498 17.7571 51.491 17.7819 51.5404 17.8313C51.6229 17.7489 51.6888 17.7077 51.7383 17.7077C51.7548 17.7077 51.7713 17.7159 51.7878 17.7324C51.8042 17.7489 51.8207 17.7571 51.8372 17.7571C51.8867 17.7571 51.9691 17.6994 52.0845 17.584H52.1587C52.1752 17.6005 52.1917 17.6087 52.2082 17.6087H52.2576C52.2741 17.6747 52.2741 17.7654 52.2576 17.8808L52.3318 17.9797C52.3648 17.9467 52.3895 17.9467 52.406 17.9797L52.4555 17.9055V17.7819C52.4555 17.7819 52.4637 17.7654 52.4802 17.7324C52.4967 17.7159 52.5214 17.7077 52.5544 17.7077C52.5709 17.7077 52.5874 17.7159 52.6039 17.7324C52.6204 17.6994 52.6451 17.6582 52.6781 17.6087C52.7111 17.5593 52.744 17.5016 52.777 17.4356C52.777 17.4521 52.7935 17.4604 52.8265 17.4604C52.9089 17.4768 52.9666 17.5016 52.9996 17.5346C53.0326 17.4851 53.0985 17.4604 53.1974 17.4604L53.2716 17.5346L53.4448 17.4356V17.3367L53.5931 17.213C53.8899 17.0811 54.0795 17.0152 54.162 17.0152L54.2114 17.0647C54.2279 17.0647 54.2362 17.0399 54.2362 16.9905C54.2526 17.007 54.3021 16.9905 54.3845 16.941C54.4505 16.974 54.4752 16.9987 54.4587 17.0152C54.4423 17.0317 54.4505 17.0399 54.4835 17.0399H54.6566C54.739 17.0399 54.7885 17.0399 54.805 17.0399C54.838 17.0564 54.8627 17.0647 54.8792 17.0647C54.9121 17.0647 54.9451 17.0399 54.9781 16.9905C55.0111 16.9575 55.1347 16.8668 55.3491 16.7184C55.5634 16.5865 55.7036 16.5206 55.7695 16.5206C55.753 16.5041 55.753 16.4711 55.7695 16.4216C55.7695 16.4052 55.7695 16.3969 55.7695 16.3969V16.4216C55.7695 16.4216 55.8107 16.4216 55.8932 16.4216C55.9426 16.4216 55.9756 16.3969 55.9921 16.3474L56.0415 16.3969L56.1899 16.3227C56.2229 16.2897 56.2064 16.232 56.1405 16.1496V15.9765L56.2394 15.9517C56.2724 15.9517 56.3053 15.96 56.3383 15.9765C56.3878 16.0095 56.4208 16.0259 56.4373 16.0259C56.5032 15.993 56.6104 15.9435 56.7588 15.8776C56.9071 15.8116 56.9896 15.7457 57.0061 15.6797V15.655C57.0061 15.6055 57.0226 15.5396 57.0555 15.4571C57.105 15.3747 57.1462 15.3335 57.1792 15.3335C57.2122 15.3335 57.2369 15.3417 57.2534 15.3582H57.3028C57.3358 15.3582 57.41 15.3087 57.5254 15.2098C57.5419 15.1933 57.5502 15.1686 57.5502 15.1356C57.5502 15.1026 57.5584 15.0614 57.5749 15.012C57.5749 15.012 57.6326 15.0532 57.748 15.1356C57.7645 15.1356 57.781 15.1274 57.7975 15.1109C57.8305 15.0779 57.8634 15.0614 57.8964 15.0614V14.7152C57.9294 14.6987 57.9624 14.6822 57.9953 14.6657C58.0448 14.6492 58.1025 14.6245 58.1684 14.5915C58.2179 14.5585 58.2674 14.4844 58.3168 14.3689H58.4652C58.4652 14.336 58.4817 14.2783 58.5147 14.1958C58.4982 14.1958 58.4982 14.1876 58.5147 14.1711V14.1958C58.5147 14.1958 58.5312 14.1958 58.5641 14.1958C58.5147 14.1958 58.5394 14.1793 58.6383 14.1464C58.6054 14.0309 58.5641 13.965 58.5147 13.9485C58.5312 13.932 58.5394 13.9073 58.5394 13.8743H58.6878C58.6878 13.8248 58.6713 13.7836 58.6383 13.7507C58.6713 13.7012 58.729 13.6517 58.8115 13.6023C58.9104 13.5528 58.9599 13.4951 58.9599 13.4291C58.9599 13.3962 58.9599 13.3632 58.9599 13.3302C58.9599 13.2808 58.9434 13.2313 58.9104 13.1818C58.9104 13.1489 58.9186 13.1159 58.9351 13.0829H58.9599C59.0753 13.0829 59.133 12.9428 59.133 12.6625C59.133 12.4646 59.1 12.308 59.034 12.1926C59.034 12.1761 59.0423 12.1596 59.0588 12.1431C59.0423 12.1101 59.0011 12.0359 58.9351 11.9205C58.8857 11.8051 58.795 11.665 58.6631 11.5001L58.4405 11.2033C58.2097 10.9725 58.0778 10.8571 58.0448 10.8571C58.0118 10.8571 58.0036 10.8653 58.0201 10.8818C58.0201 10.8983 58.0201 10.9065 58.0201 10.9065C58.0201 10.9065 58.0201 10.8983 58.0201 10.8818C57.9706 10.7994 57.9129 10.7582 57.8469 10.7582C57.8305 10.7582 57.814 10.7664 57.7975 10.7829C57.781 10.6675 57.7398 10.6098 57.6738 10.6098H57.6491C57.6491 10.6263 57.6408 10.6345 57.6244 10.6345C57.6079 10.6345 57.5749 10.6098 57.5254 10.5603C57.476 10.5108 57.443 10.4861 57.4265 10.4861H57.4018C57.4018 10.5026 57.3935 10.5108 57.377 10.5108C57.4265 10.5108 57.41 10.4861 57.3276 10.4366C57.2781 10.4366 57.1297 10.3872 56.8824 10.2883C56.6516 10.1893 56.4785 10.1399 56.3631 10.1399C56.3631 10.0904 56.3466 10.0657 56.3136 10.0657C56.2971 10.0657 56.2889 10.0739 56.2889 10.0904C56.2889 10.1069 56.2806 10.1151 56.2641 10.1151C56.2476 10.1151 56.1405 10.0739 55.9426 9.99148H55.819C55.8025 9.99148 55.786 9.99148 55.7695 9.99148C55.753 9.975 55.7036 9.95851 55.6211 9.94202C55.6046 9.94202 55.5881 9.95026 55.5717 9.96675L55.5222 9.89256C55.5222 9.89256 55.5057 9.87607 55.4727 9.84309C55.4398 9.87607 55.4068 9.89256 55.3738 9.89256C55.3408 9.89256 55.2666 9.86783 55.1512 9.81836C55.0523 9.7689 54.9946 9.74417 54.9781 9.74417C54.9451 9.74417 54.9039 9.75241 54.8544 9.7689H54.7061C54.6896 9.7689 54.6731 9.76066 54.6566 9.74417C54.6401 9.72768 54.6236 9.71944 54.6071 9.71944C54.5742 9.71944 54.5164 9.71944 54.434 9.71944C54.3681 9.71944 54.2856 9.71119 54.1867 9.69471L54.1125 9.62051H54.063L54.0136 9.57105L53.9146 9.64524C53.8322 9.56281 53.7415 9.52159 53.6426 9.52159H53.5437C53.5107 9.53807 53.4777 9.54632 53.4448 9.54632C53.4283 9.54632 53.42 9.53807 53.42 9.52159C53.4365 9.5051 53.4365 9.49686 53.42 9.49686C53.4035 9.49686 53.387 9.48861 53.3706 9.47212C53.3706 9.45564 53.3623 9.44739 53.3458 9.44739L53.1727 9.49686C53.1562 9.49686 53.115 9.48037 53.0491 9.44739C52.9831 9.39793 52.9336 9.3732 52.9007 9.3732H52.8512C52.8347 9.3732 52.777 9.36495 52.6781 9.34847C52.5956 9.33198 52.472 9.30725 52.3071 9.27427L51.763 9.15062L51.6888 9.17535C51.6394 9.17535 51.491 9.11764 51.2437 9.00223C51.0128 8.88681 50.8809 8.82911 50.848 8.82911H50.7985C50.782 8.8456 50.7655 8.85384 50.749 8.85384C50.6831 8.85384 50.5842 8.81262 50.4523 8.73018V8.77965C50.3698 8.74667 50.0813 8.65599 49.5867 8.5076C49.3229 8.3757 48.9519 8.17785 48.4737 7.91405C48.3913 7.81512 48.3336 7.70795 48.3006 7.59254V7.39469C48.2347 7.2463 48.1605 7.14737 48.078 7.09791C48.111 6.99899 48.0945 6.93304 48.0286 6.90006C48.0616 6.81762 48.0533 6.73518 48.0038 6.65275L48.078 6.13339C48.111 6.10041 48.1357 6.04271 48.1522 5.96027C48.1687 5.86134 48.2264 5.67174 48.3254 5.39145C48.3418 5.35847 48.3501 5.3255 48.3501 5.29252C48.3501 5.25955 48.3583 5.21833 48.3748 5.16886C48.3748 5.18535 48.3831 5.20184 48.3996 5.21833C48.416 5.20184 48.4408 5.16062 48.4737 5.09467C48.5067 5.01223 48.5727 4.94628 48.6716 4.89682C48.6716 4.86384 48.6881 4.81438 48.7211 4.74843C48.7705 4.68248 48.8612 4.55882 48.9931 4.37746C49.1085 4.328 49.2404 4.1961 49.3888 3.98176C49.5372 3.76742 49.6691 3.61903 49.7845 3.53659L50.0071 3.4624L50.106 3.33874L50.6254 3.04196C50.6584 3.00899 50.7325 2.98426 50.848 2.96777L50.8974 2.91831C50.9634 2.91831 50.9963 2.89358 50.9963 2.84411L51.0458 2.89358C51.0458 2.87709 51.1365 2.82763 51.3179 2.74519L51.5157 2.64626C51.5652 2.5968 51.6311 2.56383 51.7136 2.54734C51.7465 2.53085 51.7795 2.52261 51.8125 2.52261C51.8455 2.52261 51.8867 2.51436 51.9361 2.49787C51.9526 2.49787 51.9691 2.48139 51.9856 2.44841C52.0186 2.41544 52.0433 2.39895 52.0598 2.39895C52.0763 2.39895 52.0845 2.40719 52.0845 2.42368H52.1093C52.0928 2.42368 52.1422 2.39071 52.2576 2.32476C52.4885 2.15988 52.777 2.0692 53.1232 2.05271C53.1397 2.05271 53.1645 2.03622 53.1974 2.00325C53.2304 1.97027 53.2551 1.95378 53.2716 1.95378H53.3211C53.3376 1.97027 53.3541 1.97852 53.3706 1.97852C53.4035 1.97852 53.4365 1.97027 53.4695 1.95378C53.5025 1.92081 53.5354 1.90432 53.5684 1.90432C53.5025 1.90432 53.5767 1.87135 53.791 1.8054C54.0218 1.72296 54.3021 1.68174 54.6319 1.68174C54.6813 1.68174 54.7308 1.6735 54.7802 1.65701H54.9534C54.9699 1.65701 54.9781 1.64876 54.9781 1.63228H55.0028C55.0853 1.63228 55.1677 1.62403 55.2501 1.60755C55.3326 1.59106 55.382 1.54984 55.3985 1.48389L55.448 1.53335C55.4975 1.45091 55.5387 1.45091 55.5717 1.53335V1.48389H55.6953C55.7118 1.48389 55.72 1.49213 55.72 1.50862C55.7365 1.52511 55.753 1.53335 55.7695 1.53335C55.819 1.53335 55.8437 1.51686 55.8437 1.48389L55.9426 1.55808C56.0745 1.40969 56.1734 1.3355 56.2394 1.3355L56.4125 1.38496C56.4455 1.38496 56.462 1.37672 56.462 1.36023C56.462 1.34374 56.4702 1.3355 56.4867 1.3355C56.5032 1.3355 56.5527 1.35199 56.6351 1.38496C56.734 1.41794 56.8 1.43443 56.833 1.43443C56.8494 1.43443 56.8824 1.41794 56.9319 1.38496C56.9813 1.3355 57.0143 1.31077 57.0308 1.31077C57.1462 1.32726 57.2287 1.35199 57.2781 1.38496C57.3441 1.40145 57.443 1.43443 57.5749 1.48389C57.6573 1.38496 57.7068 1.3355 57.7233 1.3355C57.7563 1.3355 57.8387 1.36847 57.9706 1.43443L58.0695 1.36023C58.053 1.37672 58.0448 1.40145 58.0448 1.43443C58.0613 1.45091 58.0778 1.45916 58.0943 1.45916H58.2426C58.2756 1.45916 58.2756 1.43443 58.2426 1.38496C58.3086 1.45091 58.3663 1.48389 58.4158 1.48389C58.4322 1.48389 58.4405 1.47564 58.4405 1.45916H58.4652C58.4487 1.45916 58.4735 1.48389 58.5394 1.53335C58.5229 1.53335 58.5312 1.54159 58.5641 1.55808C58.5971 1.55808 58.6466 1.56633 58.7125 1.58281C58.7455 1.61579 58.7702 1.68174 58.7867 1.78066C58.8032 1.76418 58.8115 1.73945 58.8115 1.70647C58.8115 1.73945 58.8197 1.76418 58.8362 1.78066L59.3556 2.00325C59.3556 2.10217 59.4297 2.2011 59.5781 2.30002C59.5616 2.36597 59.6029 2.48963 59.7018 2.67099C59.8172 2.85236 59.8584 2.97601 59.8254 3.04196C59.8914 3.15738 59.9244 3.2563 59.9244 3.33874C59.9244 3.50362 59.8996 3.66025 59.8502 3.80864C59.8007 3.87459 59.743 3.98176 59.6771 4.13015C59.6276 4.27853 59.4957 4.44341 59.2814 4.62477C59.034 4.83911 58.8857 5.00399 58.8362 5.1194L58.1684 5.63876C58.1355 5.67174 58.1107 5.70471 58.0943 5.73769C58.0778 5.75417 58.0695 5.76242 58.0695 5.76242C58.0365 5.76242 58.0201 5.75417 58.0201 5.73769C58.0365 5.7212 58.0283 5.71295 57.9953 5.71295C58.0118 5.71295 57.9129 5.77066 57.6986 5.88607L57.5254 5.93554C57.476 5.96851 57.41 6.01797 57.3276 6.08393C57.2616 6.13339 57.1709 6.19934 57.0555 6.28178C56.9896 6.29826 56.9154 6.33124 56.833 6.3807C56.7505 6.41368 56.6516 6.46314 56.5362 6.52909C56.5362 6.47963 56.5114 6.4549 56.462 6.4549L56.9319 6.05919C56.9649 6.05919 57.0061 6.05095 57.0555 6.03446L57.5007 5.63876L57.6986 5.53983C57.7645 5.52335 57.7975 5.47388 57.7975 5.39145H57.8469C58.0283 5.39145 58.1684 5.23481 58.2674 4.92155C58.3168 4.92155 58.3498 4.92979 58.3663 4.94628C58.3828 4.89682 58.4158 4.84736 58.4652 4.79789C58.5147 4.74843 58.5806 4.68248 58.6631 4.60004C58.762 4.46814 58.8692 4.31151 58.9846 4.13015C59.1 3.93229 59.2154 3.7262 59.3308 3.51186C59.3308 3.51186 59.3143 3.47889 59.2814 3.41294C59.2978 3.37996 59.3308 3.33874 59.3803 3.28928C59.4297 3.22333 59.4545 3.18211 59.4545 3.16562C59.4545 3.16562 59.438 3.13265 59.405 3.0667V2.72046C59.405 2.60504 59.3473 2.48963 59.2319 2.37422C59.1989 2.39071 59.1742 2.39895 59.1577 2.39895L59.1824 2.30002C59.1824 2.25056 59.0753 2.16812 58.8609 2.05271C58.5971 1.88783 58.4322 1.8054 58.3663 1.8054H58.2921C58.2756 1.82188 58.2509 1.83013 58.2179 1.83013C58.1849 1.83013 58.1272 1.81364 58.0448 1.78066C57.9788 1.74769 57.9376 1.7312 57.9211 1.7312C57.9046 1.7312 57.8964 1.73945 57.8964 1.75593C57.8964 1.77242 57.8882 1.78066 57.8717 1.78066L57.3276 1.65701C57.3111 1.65701 57.3028 1.66525 57.3028 1.68174C57.3028 1.69823 57.2946 1.70647 57.2781 1.70647C57.2616 1.70647 57.2369 1.69823 57.2039 1.68174C57.1709 1.66525 57.138 1.65701 57.105 1.65701C57.0885 1.65701 57.072 1.66525 57.0555 1.68174C57.0555 1.69823 57.0473 1.70647 57.0308 1.70647C57.0143 1.70647 57.0061 1.69823 57.0061 1.68174H56.9566C56.9401 1.68174 56.9319 1.68998 56.9319 1.70647C56.9319 1.72296 56.9236 1.7312 56.9071 1.7312C56.8907 1.7312 56.8742 1.72296 56.8577 1.70647C56.8577 1.68998 56.8494 1.68174 56.833 1.68174C56.8165 1.68174 56.8082 1.68998 56.8082 1.70647H56.833L56.4373 1.78066C56.4043 1.78066 56.3631 1.78066 56.3136 1.78066C56.2641 1.78066 56.2064 1.78891 56.1405 1.8054L56.0663 1.75593C55.8025 1.85486 55.6046 1.90432 55.4727 1.90432C55.4398 1.90432 55.4233 1.89608 55.4233 1.87959H55.3985C55.3656 1.87959 55.2501 1.91257 55.0523 1.97852C54.8709 2.04447 54.772 2.07744 54.7555 2.07744C54.739 2.07744 54.739 2.0692 54.7555 2.05271C54.7555 2.03622 54.7473 2.02798 54.7308 2.02798C54.7473 2.02798 54.7555 2.02798 54.7555 2.02798C54.7555 2.01149 54.7555 2.00325 54.7555 2.00325C54.7555 1.98676 54.6978 1.995 54.5824 2.02798C54.467 2.06095 54.3516 2.10217 54.2362 2.15163C54.1372 2.18461 54.0795 2.21759 54.063 2.25056H54.0383C54.0383 2.23407 54.0301 2.22583 54.0136 2.22583C53.9146 2.22583 53.824 2.29178 53.7415 2.42368C53.7415 2.40719 53.7498 2.39071 53.7663 2.37422L53.6673 2.32476L53.5437 2.49787L53.4942 2.44841C53.5602 2.44841 53.42 2.51436 53.0738 2.64626C53.0573 2.66275 53.0491 2.67099 53.0491 2.67099C53.0491 2.67099 53.0491 2.67924 53.0491 2.69573C53.0326 2.67924 53.0326 2.67099 53.0491 2.67099C53.0326 2.67099 53.0243 2.67099 53.0243 2.67099C53.0243 2.68748 52.9007 2.74519 52.6533 2.84411L52.3813 2.94304L52.2082 3.0667L50.7985 4.10541C50.6336 4.22083 50.51 4.35273 50.4275 4.50112C50.3616 4.63302 50.2791 4.78141 50.1802 4.94628L50.106 4.89682C50.0895 4.97926 50.0071 5.06169 49.8587 5.14413C49.8752 5.12764 49.8834 5.16886 49.8834 5.26779C49.8834 5.30076 49.834 5.35847 49.735 5.44091V5.5151C49.735 5.61403 49.7433 5.69647 49.7598 5.76242C49.7433 5.81188 49.7268 5.87783 49.7103 5.96027C49.7103 6.02622 49.6773 6.14988 49.6114 6.33124C49.6114 6.34773 49.6114 6.37246 49.6114 6.40543C49.6114 6.43841 49.6196 6.47138 49.6361 6.50436C49.6196 6.57031 49.6031 6.61977 49.5867 6.65275C49.5867 6.66923 49.5867 6.66923 49.5867 6.65275C49.5867 6.80114 49.5949 6.85884 49.6114 6.82587C49.7928 6.89182 49.8669 7.04021 49.834 7.27103C49.9164 7.35347 49.9576 7.39469 49.9576 7.39469C49.9741 7.39469 49.9824 7.38644 49.9824 7.36996H50.0071C50.0401 7.36996 50.0813 7.39469 50.1307 7.44415C50.1802 7.49361 50.2462 7.51834 50.3286 7.51834C50.3121 7.53483 50.3204 7.59254 50.3533 7.69146C50.4028 7.79039 50.444 7.83985 50.477 7.83985C50.4935 7.83985 50.5017 7.83161 50.5017 7.81512H50.5265C50.5429 7.81512 50.6171 7.86458 50.749 7.96351C50.8809 8.06244 50.9551 8.1119 50.9716 8.1119H50.9963C50.9963 8.09541 51.0046 8.08717 51.0211 8.08717C51.0376 8.08717 51.1282 8.15312 51.2931 8.28502C51.4745 8.40043 51.5817 8.45814 51.6146 8.45814C51.6311 8.45814 51.7383 8.41692 51.9361 8.33448L52.2329 8.65599C52.2494 8.6395 52.2576 8.61477 52.2576 8.58179C52.3895 8.73018 52.5132 8.80438 52.6286 8.80438C52.6616 8.80438 52.6946 8.82086 52.7275 8.85384L52.777 8.77965C52.777 8.81262 52.7935 8.82911 52.8265 8.82911C52.843 8.82911 52.8512 8.82086 52.8512 8.80438H52.8759C53.0903 8.93628 53.2057 9.00223 53.2222 9.00223C53.2387 9.00223 53.2634 8.99398 53.2964 8.9775C53.3293 8.96101 53.3541 8.95276 53.3706 8.95276C53.4035 8.95276 53.4612 8.99398 53.5437 9.07642C53.5602 9.05993 53.5684 9.04345 53.5684 9.02696C53.6508 9.1094 53.791 9.15062 53.9888 9.15062C54.1372 9.24954 54.2609 9.299 54.3598 9.299C54.4587 9.299 54.5164 9.30725 54.5329 9.32374L54.7061 9.39793C54.7225 9.39793 54.7638 9.38969 54.8297 9.3732C54.8957 9.35671 54.9451 9.34847 54.9781 9.34847C55.1595 9.38144 55.2831 9.41442 55.3491 9.44739C55.415 9.46388 55.4233 9.47212 55.3738 9.47212C55.3903 9.47212 55.4068 9.46388 55.4233 9.44739L55.4727 9.49686L55.6953 9.64524C55.7283 9.64524 55.753 9.66997 55.7695 9.71944L55.8932 9.62051C55.9426 9.66997 55.9509 9.69471 55.9179 9.69471L55.8684 9.74417L55.9674 9.81836C56.0498 9.75241 56.1322 9.71944 56.2147 9.71944C56.1982 9.71944 56.1899 9.71944 56.1899 9.71944C56.2064 9.71944 56.2229 9.71944 56.2394 9.71944H56.2147C56.1487 9.71944 56.1982 9.74417 56.3631 9.79363C56.462 9.82661 56.5197 9.85958 56.5362 9.89256H56.8082C56.8412 9.99148 56.8907 10.0409 56.9566 10.0409C56.9896 10.0409 56.9978 10.0327 56.9813 10.0162C56.9813 9.99973 56.9896 9.99148 57.0061 9.99148C57.039 9.99148 57.105 10.0162 57.2039 10.0657C57.2204 10.0657 57.2451 10.0904 57.2781 10.1399C57.3111 10.1893 57.3441 10.2141 57.377 10.2141C57.3935 10.2141 57.4018 10.2058 57.4018 10.1893H57.4265C57.4595 10.1893 57.5089 10.247 57.5749 10.3625C57.5914 10.346 57.5996 10.3295 57.5996 10.313L57.8222 10.4614C57.8387 10.4614 57.8634 10.4614 57.8964 10.4614C57.9294 10.4614 57.9706 10.4696 58.0201 10.4861C58.0365 10.5026 58.0613 10.5438 58.0943 10.6098C58.1437 10.6592 58.1849 10.684 58.2179 10.684C58.2344 10.684 58.2426 10.6757 58.2426 10.6592H58.2674C58.2839 10.6592 58.3003 10.684 58.3168 10.7334C58.3333 10.7664 58.3581 10.7829 58.391 10.7829C58.424 10.7664 58.4487 10.7582 58.4652 10.7582C58.4652 10.7746 58.5312 10.8488 58.6631 10.9807C58.6466 10.9807 58.7125 11.0797 58.8609 11.2775C58.9434 11.36 59.0093 11.4177 59.0588 11.4506C59.1247 11.4671 59.2154 11.5496 59.3308 11.6979C59.3143 11.7144 59.3061 11.7639 59.3061 11.8463L59.5287 12.0442C59.5287 12.0607 59.5699 12.1761 59.6523 12.3904C59.7348 12.5883 59.776 12.7861 59.776 12.984C59.776 13.0994 59.7595 13.2148 59.7265 13.3302C59.71 13.4456 59.6853 13.5693 59.6523 13.7012C59.6194 13.8496 59.6111 13.932 59.6276 13.9485C59.5781 13.965 59.5204 14.0639 59.4545 14.2453C59.3885 14.4431 59.2731 14.6657 59.1082 14.913C59.0918 14.9295 59.0423 14.9872 58.9599 15.0861C58.8939 15.1686 58.7867 15.2922 58.6383 15.4571L58.5641 15.655C58.5312 15.7044 58.4817 15.7621 58.4158 15.8281C58.3498 15.894 58.2756 15.9682 58.1932 16.0507L57.8964 16.2238C57.6161 16.4216 57.476 16.5453 57.476 16.5948V16.57H57.4512C57.4842 16.57 57.443 16.603 57.3276 16.669C57.3276 16.6854 57.3111 16.7102 57.2781 16.7431C57.2616 16.7926 57.2122 16.8503 57.1297 16.9163C57.0968 16.9163 57.0308 16.9328 56.9319 16.9657C56.8989 16.9987 56.8494 17.0399 56.7835 17.0894C56.7175 17.1553 56.6433 17.2213 56.5609 17.2872L56.3136 17.3614C56.3136 17.3614 56.2724 17.4027 56.1899 17.4851C56.124 17.5675 56.058 17.6087 55.9921 17.6087C56.0086 17.6087 56.0003 17.5923 55.9674 17.5593H55.9426C55.9261 17.5593 55.9179 17.5923 55.9179 17.6582H55.8684C55.8849 17.6582 55.8355 17.6912 55.72 17.7571C55.6541 17.8066 55.5552 17.8561 55.4233 17.9055C55.2914 17.955 55.1512 18.0374 55.0028 18.1528C54.9204 18.1528 54.8709 18.1611 54.8544 18.1776L54.805 18.1281C54.7885 18.1941 54.739 18.227 54.6566 18.227C54.6401 18.227 54.6319 18.2188 54.6319 18.2023H54.6071C54.5906 18.2023 54.5494 18.227 54.4835 18.2765C54.434 18.3424 54.401 18.3754 54.3845 18.3754L54.1372 18.326C54.1372 18.326 54.096 18.3754 54.0136 18.4743C53.9311 18.5733 53.8322 18.6227 53.7168 18.6227C53.7003 18.6227 53.6921 18.6145 53.6921 18.598L53.6673 18.5733C53.6344 18.5733 53.6096 18.5815 53.5931 18.598C53.5767 18.631 53.5602 18.6475 53.5437 18.6475H53.5189C53.5189 18.631 53.5107 18.6227 53.4942 18.6227C53.4777 18.6227 53.4448 18.6392 53.3953 18.6722C53.3458 18.7052 53.3046 18.7217 53.2716 18.7217H53.2222C53.2057 18.7052 53.1892 18.6969 53.1727 18.6969C53.1068 18.6969 52.9584 18.7629 52.7275 18.8948L52.6286 18.7464C52.5792 18.8618 52.5132 18.9195 52.4308 18.9195C52.3978 18.9195 52.3566 18.8948 52.3071 18.8453H52.2576C52.2247 18.8453 52.2082 18.8536 52.2082 18.87C52.2247 18.8865 52.2247 18.8948 52.2082 18.8948H52.1835C52.1835 18.8783 52.1752 18.87 52.1587 18.87C52.1422 18.87 52.0763 18.903 51.9609 18.969C51.8455 19.0349 51.763 19.0679 51.7136 19.0679C51.7136 19.0349 51.6806 19.0102 51.6146 18.9937C51.5652 18.9772 51.4992 18.9442 51.4168 18.8948L51.3179 19.0184H51.2931L51.2437 19.0679C51.1282 19.0514 51.0128 18.9937 50.8974 18.8948V18.9442H50.749C50.6996 18.9278 50.6584 18.9195 50.6254 18.9195C50.6089 18.9195 50.5594 18.9525 50.477 19.0184C50.411 19.1009 50.3616 19.1421 50.3286 19.1421ZM54.0383 14.4431C53.9888 14.4761 53.9476 14.4514 53.9146 14.3689L53.9394 14.1711H54.0878C54.0878 14.2041 54.0795 14.2453 54.063 14.2947C54.063 14.3277 54.0548 14.3772 54.0383 14.4431ZM44.5167 16.5206H44.5662V16.4216H44.5167V16.5206Z" fill="black"/>
</svg>
